<svg width="23" height="21" viewBox="0 0 23 21" fill="none" xmlns="http://www.w3.org/2000/svg">
<path fill-rule="evenodd" clip-rule="evenodd" d="M10.0973 1.90802C9.07485 1.11955 7.91356 0.719727 6.64571 0.719727C4.94676 0.719727 3.38394 1.3994 2.2451 2.63349C1.11986 3.85316 0.5 5.5194 0.5 7.3255C0.5 9.18443 1.19337 10.8861 2.68201 12.6808C4.0137 14.2861 5.92766 15.9158 8.14407 17.8029L8.14592 17.8045C8.90226 18.4485 9.75954 19.1785 10.6495 19.956C10.8848 20.1619 11.1868 20.2753 11.5 20.2753C11.813 20.2753 12.1152 20.1619 12.3501 19.9563C13.2334 19.1846 14.0848 18.4595 14.8373 17.8187L14.8564 17.8024C17.0723 15.9158 18.9865 14.286 20.3182 12.6806C21.8068 10.8861 22.5 9.18443 22.5 7.32533C22.5 5.5194 21.8801 3.85316 20.7547 2.63349C19.6159 1.3994 18.0532 0.719727 16.3543 0.719727C15.0865 0.719727 13.9252 1.11953 12.9026 1.90794L12.8975 1.91189C12.3809 2.31118 11.9127 2.79968 11.5 3.36985C11.0874 2.79985 10.6191 2.31118 10.1023 1.91189L10.0973 1.90802ZM9.87985 4.54251C10.256 5.06214 10.8585 5.36983 11.4999 5.36985C12.1414 5.36987 12.7439 5.0622 13.1201 4.54259C13.4295 4.11514 13.7665 3.76803 14.1203 3.49456C14.801 2.96868 15.536 2.71973 16.3543 2.71973C17.5023 2.71973 18.5297 3.17142 19.2849 3.98985C20.0381 4.80614 20.5 5.97389 20.5 7.32533C20.5 8.60943 20.0473 9.87452 18.7788 11.4038C17.582 12.8466 15.8211 14.3544 13.5597 16.2797C12.8713 16.866 12.1832 17.4526 11.5 18.0449C10.8169 17.4528 10.129 16.8663 9.44073 16.2802C7.17915 14.3546 5.41816 12.8466 4.22133 11.4038C2.95264 9.8743 2.5 8.60929 2.5 7.3255C2.5 5.97392 2.96205 4.80596 3.71507 3.98966C4.47027 3.1714 5.49773 2.71973 6.64571 2.71973C7.46413 2.71973 8.19895 2.96863 8.87955 3.49454C9.23345 3.76797 9.57058 4.11522 9.87985 4.54251Z" fill="#4F4F4F" fill-opacity="0.5"/>
<path fill-rule="evenodd" clip-rule="evenodd" d="M10.0973 1.90802C9.07485 1.11955 7.91356 0.719727 6.64571 0.719727C4.94676 0.719727 3.38394 1.3994 2.2451 2.63349C1.11986 3.85316 0.5 5.5194 0.5 7.3255C0.5 9.18443 1.19337 10.8861 2.68201 12.6808C4.0137 14.2861 5.92766 15.9158 8.14407 17.8029L8.14592 17.8045C8.90226 18.4485 9.75954 19.1785 10.6495 19.956C10.8848 20.1619 11.1868 20.2753 11.5 20.2753C11.813 20.2753 12.1152 20.1619 12.3501 19.9563C13.2334 19.1846 14.0848 18.4595 14.8373 17.8187L14.8564 17.8024C17.0723 15.9158 18.9865 14.286 20.3182 12.6806C21.8068 10.8861 22.5 9.18443 22.5 7.32533C22.5 5.5194 21.8801 3.85316 20.7547 2.63349C19.6159 1.3994 18.0532 0.719727 16.3543 0.719727C15.0865 0.719727 13.9252 1.11953 12.9026 1.90794L12.8975 1.91189C12.3809 2.31118 11.9127 2.79968 11.5 3.36985C11.0874 2.79985 10.6191 2.31118 10.1023 1.91189L10.0973 1.90802ZM9.87985 4.54251C10.256 5.06214 10.8585 5.36983 11.4999 5.36985C12.1414 5.36987 12.7439 5.0622 13.1201 4.54259C13.4295 4.11514 13.7665 3.76803 14.1203 3.49456C14.801 2.96868 15.536 2.71973 16.3543 2.71973C17.5023 2.71973 18.5297 3.17142 19.2849 3.98985C20.0381 4.80614 20.5 5.97389 20.5 7.32533C20.5 8.60943 20.0473 9.87452 18.7788 11.4038C17.582 12.8466 15.8211 14.3544 13.5597 16.2797C12.8713 16.866 12.1832 17.4526 11.5 18.0449C10.8169 17.4528 10.129 16.8663 9.44073 16.2802C7.17915 14.3546 5.41816 12.8466 4.22133 11.4038C2.95264 9.8743 2.5 8.60929 2.5 7.3255C2.5 5.97392 2.96205 4.80596 3.71507 3.98966C4.47027 3.1714 5.49773 2.71973 6.64571 2.71973C7.46413 2.71973 8.19895 2.96863 8.87955 3.49454C9.23345 3.76797 9.57058 4.11522 9.87985 4.54251Z" fill="#006A75" fill-opacity="0.15"/>
</svg>
