<svg width="19" height="24" viewBox="0 0 19 24" fill="none" xmlns="http://www.w3.org/2000/svg">
<path fill-rule="evenodd" clip-rule="evenodd" d="M15.562 2.4603C13.9546 0.884995 11.7744 0 9.50112 0C7.22783 0 5.04765 0.884995 3.4402 2.4603C1.83275 4.0356 0.929688 6.17217 0.929688 8.39998C0.929688 10.8826 2.0307 13.1022 3.77431 14.6411C4.26803 15.0769 4.60323 15.6814 4.60343 16.3399C4.60352 16.6229 4.60357 16.9058 4.60345 17.1888C4.60299 18.2977 5.50054 19.2 6.60948 19.1999H12.3927C13.5017 19.2 14.3992 18.2977 14.3988 17.1888C14.3987 16.9058 14.3987 16.6229 14.3988 16.3399C14.399 15.6814 14.7342 15.0769 15.2279 14.6411C16.9715 13.1022 18.0725 10.8826 18.0725 8.39998C18.0725 6.17217 17.1695 4.0356 15.562 2.4603ZM14.1622 3.88872C12.9328 2.6839 11.2569 2 9.50112 2C7.74537 2 6.06948 2.6839 4.84006 3.88872C3.61201 5.09221 2.92969 6.71579 2.92969 8.39998C2.92969 10.2727 3.75645 11.9578 5.09778 13.1417C5.92015 13.8675 6.59951 14.9609 6.60343 16.3393L6.59951 17.2006L12.3995 17.1999L12.3988 16.3393C12.3992 14.9847 13.0821 13.8675 13.9044 13.1417C15.2458 11.9578 16.0725 10.2727 16.0725 8.39998C16.0725 6.71579 15.3902 5.09221 14.1622 3.88872Z" fill="#4F4F4F" fill-opacity="0.5"/>
<path fill-rule="evenodd" clip-rule="evenodd" d="M15.562 2.4603C13.9546 0.884995 11.7744 0 9.50112 0C7.22783 0 5.04765 0.884995 3.4402 2.4603C1.83275 4.0356 0.929688 6.17217 0.929688 8.39998C0.929688 10.8826 2.0307 13.1022 3.77431 14.6411C4.26803 15.0769 4.60323 15.6814 4.60343 16.3399C4.60352 16.6229 4.60357 16.9058 4.60345 17.1888C4.60299 18.2977 5.50054 19.2 6.60948 19.1999H12.3927C13.5017 19.2 14.3992 18.2977 14.3988 17.1888C14.3987 16.9058 14.3987 16.6229 14.3988 16.3399C14.399 15.6814 14.7342 15.0769 15.2279 14.6411C16.9715 13.1022 18.0725 10.8826 18.0725 8.39998C18.0725 6.17217 17.1695 4.0356 15.562 2.4603ZM14.1622 3.88872C12.9328 2.6839 11.2569 2 9.50112 2C7.74537 2 6.06948 2.6839 4.84006 3.88872C3.61201 5.09221 2.92969 6.71579 2.92969 8.39998C2.92969 10.2727 3.75645 11.9578 5.09778 13.1417C5.92015 13.8675 6.59951 14.9609 6.60343 16.3393L6.59951 17.2006L12.3995 17.1999L12.3988 16.3393C12.3992 14.9847 13.0821 13.8675 13.9044 13.1417C15.2458 11.9578 16.0725 10.2727 16.0725 8.39998C16.0725 6.71579 15.3902 5.09221 14.1622 3.88872Z" fill="#006A75" fill-opacity="0.15"/>
<path d="M5.34326 21.1428H13.6911V22C13.6911 23.1045 12.7957 24 11.6911 24H7.34343C6.23879 24 5.34331 23.1044 5.34328 21.9998L5.34326 21.1428Z" fill="#4F4F4F" fill-opacity="0.5"/>
<path d="M5.34326 21.1428H13.6911V22C13.6911 23.1045 12.7957 24 11.6911 24H7.34343C6.23879 24 5.34331 23.1044 5.34328 21.9998L5.34326 21.1428Z" fill="#006A75" fill-opacity="0.15"/>
</svg>
