<svg width="180" height="41" viewBox="0 0 180 41" fill="none" xmlns="http://www.w3.org/2000/svg">
<g clip-path="url(#clip0)">
<path d="M56.5335 22.7448H47.7061C47.8141 23.5807 48.1241 24.2197 48.6351 24.6612C49.1465 25.1023 49.8199 25.3233 50.6563 25.3233C51.1826 25.3233 51.6587 25.211 52.0849 24.9862C52.5107 24.762 52.8168 24.4328 53.0024 23.9991H56.3243C55.9679 25.2381 55.2674 26.2405 54.2222 27.0073C53.1767 27.7738 51.9573 28.1572 50.5633 28.1572C48.7666 28.1572 47.2956 27.5611 46.1496 26.3684C45.0033 25.1761 44.4306 23.6427 44.4306 21.7691C44.4306 19.9571 45.0033 18.4473 46.1496 17.2393C47.2956 16.0312 48.7591 15.4272 50.5401 15.4272C52.3208 15.4272 53.7729 16.0277 54.8957 17.2275C56.0185 18.428 56.5798 19.9418 56.5798 21.7691L56.5335 22.7448ZM50.517 18.0752C49.7736 18.0752 49.1614 18.2808 48.6818 18.691C48.2014 19.1015 47.8918 19.6631 47.7524 20.3751H53.2811C53.1571 19.6781 52.8553 19.1207 52.3753 18.7024C51.8949 18.2844 51.2756 18.0752 50.517 18.0752Z" fill="#333333"/>
<path d="M70.0299 15.7061L65.628 21.6976L70.1696 27.8784H66.1971L63.6418 24.4005L61.0864 27.8784H57.1143L61.6562 21.698L57.2536 15.7061H61.2261L63.6418 18.9947L66.0578 15.7061H70.0299Z" fill="#333333"/>
<path d="M75.3031 26.5776V32.7102H72.0044V15.7059H75.0476V17.1926C75.8525 16.0159 77.1382 15.4272 78.9039 15.4272C80.6229 15.4272 81.9855 16.0312 82.9922 17.2393C83.9989 18.4473 84.502 19.9649 84.502 21.7922C84.502 23.6199 83.9989 25.1372 82.9922 26.3452C81.9855 27.5532 80.6229 28.1572 78.9039 28.1572C78.0982 28.1572 77.3823 28.0062 76.7551 27.7043C76.128 27.4022 75.6437 27.0269 75.3031 26.5776ZM76.035 19.3068C75.4851 19.9571 75.2104 20.7856 75.2104 21.7922C75.2104 22.7989 75.4851 23.6274 76.035 24.2777C76.5845 24.9284 77.3085 25.2534 78.2069 25.2534C79.1049 25.2534 79.829 24.9284 80.3788 24.2777C80.9283 23.6274 81.2034 22.7989 81.2034 21.7922C81.2034 20.7856 80.9283 19.9571 80.3788 19.3068C79.829 18.6561 79.1049 18.3311 78.2069 18.3311C77.3086 18.3311 76.5845 18.6561 76.035 19.3068Z" fill="#333333"/>
<path d="M91.8427 25.0444V27.8552C91.5174 27.9019 91.1767 27.925 90.8207 27.925C89.5351 27.925 88.6214 27.6503 88.0794 27.1005C87.5374 26.5506 87.2666 25.6641 87.2666 24.4404V10.4561H90.5652V24.208C90.5652 24.5024 90.6191 24.7194 90.7277 24.8587C90.8361 24.998 91.0606 25.0675 91.4016 25.0675C91.4789 25.0675 91.5676 25.064 91.6685 25.0561C91.769 25.0483 91.827 25.0444 91.8427 25.0444Z" fill="#333333"/>
<path d="M104.782 26.3103C103.605 27.5415 102.064 28.1573 100.159 28.1573C98.2541 28.1573 96.7129 27.5415 95.5359 26.3103C94.3589 25.0792 93.7706 23.5733 93.7706 21.7922C93.7706 20.0116 94.3589 18.505 95.5359 17.2738C96.7129 16.0426 98.2541 15.4272 100.159 15.4272C102.064 15.4272 103.605 16.0427 104.782 17.2738C105.958 18.505 106.547 20.0116 106.547 21.7922C106.547 23.5733 105.958 25.0792 104.782 26.3103ZM97.9405 19.2601C97.3597 19.8798 97.0693 20.7236 97.0693 21.7922C97.0693 22.8609 97.3597 23.7051 97.9405 24.3241C98.521 24.9437 99.2604 25.2534 100.159 25.2534C101.057 25.2534 101.797 24.9437 102.377 24.3241C102.958 23.7051 103.249 22.8609 103.249 21.7922C103.249 20.7236 102.958 19.8798 102.377 19.2601C101.797 18.6407 101.057 18.3311 100.159 18.3311C99.2604 18.3311 98.521 18.6407 97.9405 19.2601Z" fill="#333333"/>
<path d="M120.299 20.9559V27.8782H117.001V20.6537C117.001 19.0591 116.35 18.2612 115.049 18.2612C114.29 18.2612 113.705 18.4936 113.295 18.9582C112.885 19.4229 112.68 20.0654 112.68 20.8861V27.8782H109.381V15.7059H112.424V17.1926C113.059 16.0159 114.228 15.4272 115.932 15.4272C117.542 15.4272 118.72 16.0002 119.463 17.1462C120.5 16.0002 121.848 15.4272 123.505 15.4272C124.929 15.4272 126.021 15.8688 126.78 16.7511C127.539 17.6341 127.918 18.8111 127.918 20.2824V27.8782H124.62V20.6537C124.62 19.0591 123.969 18.2612 122.669 18.2612C121.894 18.2612 121.305 18.4975 120.903 18.9697C120.5 19.4422 120.299 20.1042 120.299 20.9559Z" fill="#333333"/>
<path d="M135.05 28.1572C133.594 28.1572 132.518 27.797 131.821 27.0772C131.124 26.3566 130.776 25.4241 130.776 24.2777C130.776 22.8994 131.225 21.9045 132.123 21.2927C133.021 20.6812 134.392 20.3751 136.235 20.3751H138.651V19.8641C138.651 18.7181 137.922 18.1451 136.467 18.1451C135.166 18.1451 134.446 18.6407 134.307 19.6317H131.054C131.163 18.4394 131.659 17.4406 132.542 16.6353C133.424 15.8303 134.756 15.4272 136.537 15.4272C138.302 15.4272 139.634 15.8221 140.532 16.6121C141.43 17.4017 141.88 18.5167 141.88 19.9571V27.8782H138.953V26.5313C138.256 27.6153 136.955 28.1572 135.05 28.1572ZM138.651 23.0003V22.8609H136.676C135.747 22.8609 135.062 22.95 134.62 23.1278C134.179 23.306 133.958 23.6894 133.958 24.2777C133.958 25.1604 134.578 25.6019 135.816 25.6019C136.854 25.6019 137.586 25.381 138.012 24.9398C138.438 24.4987 138.651 23.8519 138.651 23.0003Z" fill="#333333"/>
<path d="M153.1 15.7061H157.234L152.681 20.8862L157.56 27.8784H153.657L150.498 23.0699L148.662 25.1605V27.8784H145.363V10.4561H148.662V21.2347L153.1 15.7061Z" fill="#333333"/>
<path d="M170.266 22.7448H161.439C161.547 23.5807 161.857 24.2197 162.368 24.6612C162.879 25.1023 163.553 25.3233 164.389 25.3233C164.915 25.3233 165.391 25.211 165.818 24.9862C166.244 24.762 166.55 24.4328 166.736 23.9991H170.057C169.701 25.2381 169 26.2405 167.955 27.0073C166.909 27.7738 165.69 28.1572 164.296 28.1572C162.499 28.1572 161.028 27.5611 159.882 26.3684C158.736 25.1761 158.163 23.6427 158.163 21.7691C158.163 19.9571 158.736 18.4473 159.882 17.2393C161.028 16.0312 162.492 15.4272 164.273 15.4272C166.053 15.4272 167.506 16.0277 168.628 17.2275C169.752 18.428 170.312 19.9418 170.312 21.7691L170.266 22.7448ZM164.25 18.0752C163.506 18.0752 162.894 18.2808 162.415 18.691C161.934 19.1015 161.625 19.6631 161.485 20.3751H167.014C166.89 19.6781 166.588 19.1207 166.108 18.7024C165.628 18.2844 165.009 18.0752 164.25 18.0752Z" fill="#333333"/>
<path d="M180 15.613V18.7025C179.768 18.6562 179.55 18.633 179.349 18.633C178.374 18.633 177.642 18.8885 177.154 19.3995C176.666 19.9105 176.422 20.7162 176.422 21.8155V27.8783H173.123V15.706H176.167V17.2857C176.864 16.1554 178.01 15.5898 179.605 15.5898L180 15.613Z" fill="#333333"/>
<path d="M9.23221 23.9578C10.954 25.2053 13.018 25.8789 15.1857 25.8789C17.9028 25.8789 20.4575 24.8206 22.3789 22.8995C24.3 20.9781 25.3583 18.4234 25.3583 15.7063H22.1088C22.1088 17.8635 21.1286 19.8703 19.379 21.2178C18.4074 21.9662 17.2396 22.4389 16.0214 22.5807C14.4279 22.7661 12.8802 22.4173 11.5742 21.6158L23.4385 9.75725C23.0684 9.24959 22.7876 8.92893 22.3789 8.5131C18.4122 4.54707 11.9593 4.54707 7.99254 8.5131C4.41719 12.0884 4.06493 17.6852 6.93533 21.6587C7.92764 22.9135 8.46763 23.304 9.23221 23.9578ZM10.2905 10.8111C11.6399 9.46133 13.4128 8.78664 15.1857 8.78664C16.4388 8.78664 17.6923 9.1236 18.7962 9.79829L9.27773 19.3167C7.64922 16.6516 7.98657 13.1146 10.2905 10.8111Z" fill="#009D8C"/>
<path d="M27.2719 27.8154C30.5002 24.5871 32.278 20.2949 32.278 15.7292C32.278 11.1639 30.5002 6.87128 27.2719 3.64299C26.0259 2.39735 24.5982 1.35434 23.0283 0.543457L21.5371 3.43028C22.8089 4.08744 23.9653 4.93229 24.974 5.94096C27.5888 8.55538 29.0285 12.0318 29.0285 15.7292C29.0285 19.4269 27.5888 22.903 24.974 25.5174C19.9626 30.5295 12.0353 30.8797 6.60686 26.5832C5.84832 26.0238 4.9692 25.0396 4.31351 24.2807C3.77349 23.5939 3.29065 22.8623 2.88685 22.0805L0 23.5725C0.811281 25.142 1.85392 26.5698 3.09956 27.8154C6.01945 30.7351 9.74005 32.3746 13.561 32.7362V36.8331C11.0612 37.2334 8.8618 38.5452 7.31917 40.4189L23.0473 40.4395C21.5083 38.5603 19.3104 37.2425 16.8105 36.8364V32.7362C20.631 32.3744 24.3527 30.7343 27.2719 27.8154Z" fill="#009D8C"/>
</g>
<defs>
<clipPath id="clip0">
<rect width="180" height="39.913" fill="white" transform="translate(0 0.543457)"/>
</clipPath>
</defs>
</svg>
