<svg width="203" height="150" viewBox="0 0 203 150" fill="none" xmlns="http://www.w3.org/2000/svg">
<path d="M76.8674 70.6032C80.0642 72.1344 81.7663 67.3985 84.1448 66.7532C84.9958 67.3657 84.6576 63.275 85.1704 63.2313C85.7377 62.6516 86.0214 63.111 86.0214 64.6203C86.3051 69.8266 90.5602 74.4313 90.6802 79.5938C91.3676 80.5125 90.5384 81.7266 91.9567 81.3C94.6516 81.0704 92.0331 77.8219 97.2047 78.336C99.2232 74.825 98.0339 69.6735 101.002 67.0485C101.362 66.7313 102.605 65.6485 102.78 65.2219C103.151 64.3141 103.489 63.1875 103.336 63.0344C94.8153 54.4375 104.024 49.6141 109.479 42.0781C107.548 40.0438 110.941 36.3141 111.901 34.5531C114.378 35.4391 118.12 34.5313 118.262 38.611C118.709 41.0281 117.837 39.6281 116.866 40.4375C114.345 43.5438 112.229 46.6063 110.025 48.575C107.875 51.2766 110.21 53.9891 109.763 56.9094C108.934 69.2688 129.609 58.8563 131.355 49.7125C131.486 48.1594 128.256 46.8797 127.918 45.4688C128.682 44.7469 130.067 44.2656 128.791 43.0625C125.987 37.7578 129.729 35.3078 126.03 29.1719C131.933 21.8656 118.906 23.4625 128.409 13.9906C128.202 12.8203 127.285 13.9578 126.936 13.4328C126.936 13.4328 127.602 12.1531 128.213 11.0266C128.824 9.9 129.14 8.36875 125.703 6.17032C122.255 3.97188 118.491 6.37813 114.28 8.52188C112.021 9.67032 106.599 13.925 103.14 15.9484C99.6923 17.9719 96.4301 23.0797 93.1896 28.6031C89.9492 34.1375 91.1603 34.9141 89.2509 39.3328C87.3307 43.7516 84.9522 46.0375 82.0172 48.2906C79.0823 50.5438 75.5254 54.2407 74.1507 57.0735C72.776 59.9063 74.0307 66.6547 74.729 68.1422C75.4381 69.6407 76.8674 70.6032 76.8674 70.6032Z" fill="#4F4F4F" fill-opacity="0.5"/>
<path d="M76.8674 70.6032C80.0642 72.1344 81.7663 67.3985 84.1448 66.7532C84.9958 67.3657 84.6576 63.275 85.1704 63.2313C85.7377 62.6516 86.0214 63.111 86.0214 64.6203C86.3051 69.8266 90.5602 74.4313 90.6802 79.5938C91.3676 80.5125 90.5384 81.7266 91.9567 81.3C94.6516 81.0704 92.0331 77.8219 97.2047 78.336C99.2232 74.825 98.0339 69.6735 101.002 67.0485C101.362 66.7313 102.605 65.6485 102.78 65.2219C103.151 64.3141 103.489 63.1875 103.336 63.0344C94.8153 54.4375 104.024 49.6141 109.479 42.0781C107.548 40.0438 110.941 36.3141 111.901 34.5531C114.378 35.4391 118.12 34.5313 118.262 38.611C118.709 41.0281 117.837 39.6281 116.866 40.4375C114.345 43.5438 112.229 46.6063 110.025 48.575C107.875 51.2766 110.21 53.9891 109.763 56.9094C108.934 69.2688 129.609 58.8563 131.355 49.7125C131.486 48.1594 128.256 46.8797 127.918 45.4688C128.682 44.7469 130.067 44.2656 128.791 43.0625C125.987 37.7578 129.729 35.3078 126.03 29.1719C131.933 21.8656 118.906 23.4625 128.409 13.9906C128.202 12.8203 127.285 13.9578 126.936 13.4328C126.936 13.4328 127.602 12.1531 128.213 11.0266C128.824 9.9 129.14 8.36875 125.703 6.17032C122.255 3.97188 118.491 6.37813 114.28 8.52188C112.021 9.67032 106.599 13.925 103.14 15.9484C99.6923 17.9719 96.4301 23.0797 93.1896 28.6031C89.9492 34.1375 91.1603 34.9141 89.2509 39.3328C87.3307 43.7516 84.9522 46.0375 82.0172 48.2906C79.0823 50.5438 75.5254 54.2407 74.1507 57.0735C72.776 59.9063 74.0307 66.6547 74.729 68.1422C75.4381 69.6407 76.8674 70.6032 76.8674 70.6032Z" fill="#006A75" fill-opacity="0.15"/>
<path d="M49.7983 77.1547C50.5293 76.5531 51.3476 75.5687 50.7366 76.8375C48.9582 80.2062 51.6858 78.139 51.9368 79.8125C52.3841 80.6547 51.5549 81.8906 51.4349 82.7875C51.3913 83.0828 52.9297 83.4875 53.0497 83.4875C53.9007 83.5094 55.69 81.8359 55.2754 83.3344C53.6061 85.0734 55.7009 85.5109 55.941 86.7797C55.9955 87.075 56.0282 88.6062 56.061 88.8687C56.3228 90.8922 52.7442 88.0265 53.126 90.4109C54.719 92.1172 52.4278 92.9484 51.4349 93.9328C51.1076 94.2609 51.5658 94.7969 51.795 94.764C53.4315 94.5344 54.719 96.4156 56.2137 94.9172C57.2721 94.0094 56.5083 95.3109 55.9955 95.9453C55.1881 97.0172 53.7589 96.3281 52.886 97.2469C52.2314 98.0234 51.7513 98.5703 51.4349 98.9531C51.1185 99.3359 51.6968 99.6422 52.0459 99.5766C52.5041 99.4891 53.0606 99.4016 53.6934 99.4344C53.8461 99.4453 54.2935 99.2484 54.3589 99.15C55.1009 97.9797 55.7773 97.9687 56.672 98.275C56.8138 98.3297 57.2611 98.2859 57.5666 98.2203C59.1268 97.8812 64.2548 97.6953 64.3312 97.1265C66.4042 95.9125 61.8654 96.6015 63.4365 95.3875C65.5968 93.8015 67.1243 90.0828 63.011 91.1875C60.5343 91.8765 64.113 88.8359 61.2217 88.2562C59.8033 88.0156 61.3526 86.9765 61.4399 86.375C61.789 85.6969 59.8142 84.9094 59.4323 84.45C58.9195 84.0125 58.5486 80.3594 56.8356 79.7906C56.4756 79.2984 54.0643 79.6375 54.0316 79.0687C54.0316 78.9703 54.8172 77.7015 55.2318 77.3734C55.6355 77.0453 56.2355 76.6406 56.3119 76.4218C56.7265 75.35 59.4978 72.2218 56.4756 72.6484C54.3153 72.2 51.6313 75.0656 53.2897 71.5984C52.7769 71.5328 55.8864 69.3672 54.9045 69.1484C49.7438 69.0281 52.4169 68.4593 50.2675 71.7515C48.4127 72.9656 50.7475 73.5234 50.1365 74.2015C49.3619 75.0219 49.4819 76.0609 49.1873 76.6406C49.1546 76.7281 49.4165 77.4609 49.7983 77.1547Z" fill="#4F4F4F" fill-opacity="0.5"/>
<path d="M49.7983 77.1547C50.5293 76.5531 51.3476 75.5687 50.7366 76.8375C48.9582 80.2062 51.6858 78.139 51.9368 79.8125C52.3841 80.6547 51.5549 81.8906 51.4349 82.7875C51.3913 83.0828 52.9297 83.4875 53.0497 83.4875C53.9007 83.5094 55.69 81.8359 55.2754 83.3344C53.6061 85.0734 55.7009 85.5109 55.941 86.7797C55.9955 87.075 56.0282 88.6062 56.061 88.8687C56.3228 90.8922 52.7442 88.0265 53.126 90.4109C54.719 92.1172 52.4278 92.9484 51.4349 93.9328C51.1076 94.2609 51.5658 94.7969 51.795 94.764C53.4315 94.5344 54.719 96.4156 56.2137 94.9172C57.2721 94.0094 56.5083 95.3109 55.9955 95.9453C55.1881 97.0172 53.7589 96.3281 52.886 97.2469C52.2314 98.0234 51.7513 98.5703 51.4349 98.9531C51.1185 99.3359 51.6968 99.6422 52.0459 99.5766C52.5041 99.4891 53.0606 99.4016 53.6934 99.4344C53.8461 99.4453 54.2935 99.2484 54.3589 99.15C55.1009 97.9797 55.7773 97.9687 56.672 98.275C56.8138 98.3297 57.2611 98.2859 57.5666 98.2203C59.1268 97.8812 64.2548 97.6953 64.3312 97.1265C66.4042 95.9125 61.8654 96.6015 63.4365 95.3875C65.5968 93.8015 67.1243 90.0828 63.011 91.1875C60.5343 91.8765 64.113 88.8359 61.2217 88.2562C59.8033 88.0156 61.3526 86.9765 61.4399 86.375C61.789 85.6969 59.8142 84.9094 59.4323 84.45C58.9195 84.0125 58.5486 80.3594 56.8356 79.7906C56.4756 79.2984 54.0643 79.6375 54.0316 79.0687C54.0316 78.9703 54.8172 77.7015 55.2318 77.3734C55.6355 77.0453 56.2355 76.6406 56.3119 76.4218C56.7265 75.35 59.4978 72.2218 56.4756 72.6484C54.3153 72.2 51.6313 75.0656 53.2897 71.5984C52.7769 71.5328 55.8864 69.3672 54.9045 69.1484C49.7438 69.0281 52.4169 68.4593 50.2675 71.7515C48.4127 72.9656 50.7475 73.5234 50.1365 74.2015C49.3619 75.0219 49.4819 76.0609 49.1873 76.6406C49.1546 76.7281 49.4165 77.4609 49.7983 77.1547Z" fill="#006A75" fill-opacity="0.15"/>
<path d="M43.4049 94.4797C50.0822 92.1063 47.4964 92.0188 49.0566 85.8938C50.104 84.986 49.3839 84.6579 49.0238 83.6626C48.4019 80.9501 46.078 83.586 45.0742 84.636C43.0776 84.8438 43.7759 85.511 43.5795 85.7844C43.514 85.8719 42.2702 86.0032 41.9865 85.9594C41.5719 85.8938 41.2446 85.7626 40.9282 85.8501C40.6882 85.9157 40.5027 86.6594 40.6227 86.7032C42.3466 87.4141 38.2551 89.1969 41.7247 89.1641C44.5069 89.2079 39.9135 91.1001 42.3684 91.2969C43.3394 91.4391 42.1065 91.8438 41.3537 92.1829C41.0155 92.336 40.8736 92.8282 40.8409 92.9376C40.8082 93.0469 40.7645 93.1563 40.71 93.2657C40.5354 93.6157 40.7645 94.1844 40.9827 94.3485C41.6483 94.8298 41.4519 96.1094 43.4049 94.4797Z" fill="#4F4F4F" fill-opacity="0.5"/>
<path d="M43.4049 94.4797C50.0822 92.1063 47.4964 92.0188 49.0566 85.8938C50.104 84.986 49.3839 84.6579 49.0238 83.6626C48.4019 80.9501 46.078 83.586 45.0742 84.636C43.0776 84.8438 43.7759 85.511 43.5795 85.7844C43.514 85.8719 42.2702 86.0032 41.9865 85.9594C41.5719 85.8938 41.2446 85.7626 40.9282 85.8501C40.6882 85.9157 40.5027 86.6594 40.6227 86.7032C42.3466 87.4141 38.2551 89.1969 41.7247 89.1641C44.5069 89.2079 39.9135 91.1001 42.3684 91.2969C43.3394 91.4391 42.1065 91.8438 41.3537 92.1829C41.0155 92.336 40.8736 92.8282 40.8409 92.9376C40.8082 93.0469 40.7645 93.1563 40.71 93.2657C40.5354 93.6157 40.7645 94.1844 40.9827 94.3485C41.6483 94.8298 41.4519 96.1094 43.4049 94.4797Z" fill="#006A75" fill-opacity="0.15"/>
<path d="M159.22 137.978C158.991 137.519 158.271 137.355 158.577 136.808C159.024 136.491 158.326 134.62 158.217 133.483C158.173 133.034 157.868 131.383 157.649 131.197C157.158 130.792 156.853 129.983 157.038 129.512C156.231 125.148 152.161 128.539 149.172 128.637C148.834 128.648 147.677 128.616 147.415 128.648C141.076 129.316 135.719 122.195 129.784 128.506C129.086 128.419 128.496 127.916 128.005 127.861C126.969 127.752 125.878 127.642 124.896 127.555C122.779 126.177 123.827 124.897 122.932 124.536C122.081 124.153 124.525 121.091 124.961 120.817C125.332 114.856 127.122 118.706 129.718 112.253C129.86 111.116 134.126 110.919 133.341 112.384C133.112 112.669 133.428 113.019 133.875 113.369C134.628 113.948 134.792 115.403 135.326 115.775C135.861 116.147 136.581 116.584 136.308 117.219C135.926 119.122 138.752 117.459 139.811 116.617C139.963 116.497 139.887 115.808 139.745 115.731C136.112 113.675 140.062 111.816 142.713 111.127C146.728 110.284 146.717 107.441 148.91 107.473C151.125 107.266 148.779 104.258 150.47 102.781C150.056 101.72 146.226 101.502 145.244 100.189C144.328 98.5047 143.346 100.736 142.32 99.85C141.916 99.3469 140.694 99.7734 140.389 99.2375C140.127 95.5734 137.05 97.8047 137.421 94.8297C137.334 90.2687 131.529 96.1094 131.584 92.3687C131.322 91.6687 131.191 91.1437 131.137 90.7391C130.777 87.8844 131.475 86.7797 131.017 85.5109C130.34 83.6297 130.187 81.3109 128.965 80.5016C128.769 80.3703 126.805 80.8297 125.594 80.1953C124.525 79.6375 124.187 77.975 124.11 77.7563C122.703 73.9281 121.83 69.2141 123.99 65.6594C120.597 65.3859 116.724 63.9969 114.258 66.6109C114.662 72.3641 116.386 67.5734 116.397 70.5156C116.44 73.7641 114.891 78.15 112.174 73.3047C109.163 71.2156 106.261 80.6875 111.814 82.9953C112.076 83.1047 112.349 85.6203 111.88 85.5875C108.639 85.3469 104.1 86.7359 102.038 83.9906C98.8414 84.4391 96.5502 86.3422 93.3425 87.3812C89.1856 82.8203 87.8763 88.6391 85.7924 86.6703C85.5415 86.2109 85.3887 85.5656 84.7777 85.4234C84.4177 85.3359 84.1122 85.2484 84.014 85.1609C82.6938 84.8328 84.6359 84.9422 83.4466 82.8641C82.9993 81.8906 83.1302 79.9984 84.1995 79.4297C84.4177 79.2984 84.4941 79.0141 84.5813 78.7297C84.6904 78.3687 84.7668 76.8266 84.8105 75.9953C84.8214 75.7 84.865 75.3828 84.8977 75.0656C85.0178 74.125 83.9485 73.7969 83.5012 74.0484C81.6355 75.0766 79.9771 74.9672 80.4135 78.3359C80.5335 79.0797 80.1189 80.6766 80.9045 81.0812C81.8537 81.9891 81.1118 83.1812 81.8537 84.2312C82.4101 85.3031 80.9263 86.6375 81.2318 87.9391C81.1991 89.8969 79.3661 87.5562 78.3078 88.1578C72.2851 88.5406 72.0015 96.2078 66.6117 97.6844C65.3678 98.7453 66.0443 100.703 63.8513 101.491C62.6948 102.595 62.0401 103.47 61.4073 103.492C60.9163 103.503 60.4363 102.508 59.7271 102.136C59.3452 101.939 58.8979 102.344 58.3524 102.037C58.2978 102.77 59.7271 105.439 58.4833 105.395C55.1447 106.281 55.6902 104.05 54.5009 104.98C50.8459 106.259 52.7552 104.498 52.8207 107.506C57.8286 108.316 56.7485 110.678 59.9889 113.161C62.0619 130.858 45.2488 115.239 42.412 123.639C43.3394 126.559 43.4267 130.442 41.9647 133.264C41.6046 133.997 41.3428 134.708 42.1393 134.839C45.587 137.541 38.8988 139.214 47.9 139.783C48.6856 140.658 49.4712 143.02 50.1367 141.686C51.3696 139.236 56.6067 141.194 58.0578 139.083C64.9642 134.019 57.8614 130.562 68.2373 126.198C69.2629 121.058 69.5466 120.205 75.6456 122.228C86.2616 113.686 82.8902 122.042 90.2548 127.03C93.157 127.697 95.241 129.687 97.0085 131.787C97.4558 133.002 98.1977 134.369 97.5103 135.342C96.3975 137.07 97.6958 137.584 98.4705 135.266C100.587 131.12 97.1939 132.258 100.14 130.103C100.718 129.873 102.333 131.569 102.671 131.186C103.598 130.88 98.7542 128.233 97.5322 127.139C97.3249 126.964 96.1902 126.122 95.9938 126.133C93.0807 126.264 92.6879 120.194 89.9384 120.216C88.4219 120.303 89.5893 116.42 89.1529 115.906C88.651 114.747 91.7168 113.883 92.6115 113.872C95.5137 116.398 95.7538 121.309 100.303 121.277C100.664 122.622 102.987 124.011 104.209 124.853C107.21 128.998 102.682 128.441 107.755 133.198C107.995 133.428 108.028 134.259 108.235 134.916C108.279 135.069 108.737 135.998 108.836 136.25C109.217 137.289 110.156 138.339 110.123 139.094C109.872 139.848 110.69 140.57 111.356 140.625C111.869 140.669 112.807 140.275 112.654 139.684C112.491 139.072 112.218 138.306 112.251 138.131C112.272 138.066 112.403 138.077 112.578 138.109C113.102 138.219 113.745 138.066 113.843 138.033C117.215 136.655 112.949 135.834 112.371 134.697C112.316 134.587 112.141 132.619 112 131.547C111.956 131.186 112.087 130.289 112.174 130.103C112.621 129.064 112.589 129.764 112.982 130.191C113.123 130.333 114.029 129.917 114.269 129.698C115.971 128.178 118.328 128.145 120.924 129.261C121.71 129.6 122.332 128.812 123.554 128.298C124.95 128.802 126.598 129.414 126.129 129.567C124.481 131.186 119.822 129.447 119.004 131.962C118.677 132.586 119.451 132.444 120.052 132.378C120.521 132.323 120.684 133.439 120.815 134.117C120.848 134.259 120.619 135.014 120.706 135.681C120.783 136.239 121.197 136.742 121.23 136.775C121.754 137.212 120.608 137.628 121.437 138.241C122.408 139.695 124.339 139.017 125.42 140.745C128.584 143.83 126.903 136.841 132.631 141.336C134.759 143.217 136.69 139.061 138.687 140.177C138.992 140.472 139.68 140.122 140.225 139.892C140.869 139.619 141.927 139.684 142.451 139.827C142.975 139.969 143.662 140.253 144.48 139.837C145.32 139.356 147.044 140.056 147.743 140.078C149.445 139.487 152.205 139.028 153.852 138.711C154.103 138.372 160.366 139.137 159.22 137.978Z" fill="#4F4F4F" fill-opacity="0.5"/>
<path d="M159.22 137.978C158.991 137.519 158.271 137.355 158.577 136.808C159.024 136.491 158.326 134.62 158.217 133.483C158.173 133.034 157.868 131.383 157.649 131.197C157.158 130.792 156.853 129.983 157.038 129.512C156.231 125.148 152.161 128.539 149.172 128.637C148.834 128.648 147.677 128.616 147.415 128.648C141.076 129.316 135.719 122.195 129.784 128.506C129.086 128.419 128.496 127.916 128.005 127.861C126.969 127.752 125.878 127.642 124.896 127.555C122.779 126.177 123.827 124.897 122.932 124.536C122.081 124.153 124.525 121.091 124.961 120.817C125.332 114.856 127.122 118.706 129.718 112.253C129.86 111.116 134.126 110.919 133.341 112.384C133.112 112.669 133.428 113.019 133.875 113.369C134.628 113.948 134.792 115.403 135.326 115.775C135.861 116.147 136.581 116.584 136.308 117.219C135.926 119.122 138.752 117.459 139.811 116.617C139.963 116.497 139.887 115.808 139.745 115.731C136.112 113.675 140.062 111.816 142.713 111.127C146.728 110.284 146.717 107.441 148.91 107.473C151.125 107.266 148.779 104.258 150.47 102.781C150.056 101.72 146.226 101.502 145.244 100.189C144.328 98.5047 143.346 100.736 142.32 99.85C141.916 99.3469 140.694 99.7734 140.389 99.2375C140.127 95.5734 137.05 97.8047 137.421 94.8297C137.334 90.2687 131.529 96.1094 131.584 92.3687C131.322 91.6687 131.191 91.1437 131.137 90.7391C130.777 87.8844 131.475 86.7797 131.017 85.5109C130.34 83.6297 130.187 81.3109 128.965 80.5016C128.769 80.3703 126.805 80.8297 125.594 80.1953C124.525 79.6375 124.187 77.975 124.11 77.7563C122.703 73.9281 121.83 69.2141 123.99 65.6594C120.597 65.3859 116.724 63.9969 114.258 66.6109C114.662 72.3641 116.386 67.5734 116.397 70.5156C116.44 73.7641 114.891 78.15 112.174 73.3047C109.163 71.2156 106.261 80.6875 111.814 82.9953C112.076 83.1047 112.349 85.6203 111.88 85.5875C108.639 85.3469 104.1 86.7359 102.038 83.9906C98.8414 84.4391 96.5502 86.3422 93.3425 87.3812C89.1856 82.8203 87.8763 88.6391 85.7924 86.6703C85.5415 86.2109 85.3887 85.5656 84.7777 85.4234C84.4177 85.3359 84.1122 85.2484 84.014 85.1609C82.6938 84.8328 84.6359 84.9422 83.4466 82.8641C82.9993 81.8906 83.1302 79.9984 84.1995 79.4297C84.4177 79.2984 84.4941 79.0141 84.5813 78.7297C84.6904 78.3687 84.7668 76.8266 84.8105 75.9953C84.8214 75.7 84.865 75.3828 84.8977 75.0656C85.0178 74.125 83.9485 73.7969 83.5012 74.0484C81.6355 75.0766 79.9771 74.9672 80.4135 78.3359C80.5335 79.0797 80.1189 80.6766 80.9045 81.0812C81.8537 81.9891 81.1118 83.1812 81.8537 84.2312C82.4101 85.3031 80.9263 86.6375 81.2318 87.9391C81.1991 89.8969 79.3661 87.5562 78.3078 88.1578C72.2851 88.5406 72.0015 96.2078 66.6117 97.6844C65.3678 98.7453 66.0443 100.703 63.8513 101.491C62.6948 102.595 62.0401 103.47 61.4073 103.492C60.9163 103.503 60.4363 102.508 59.7271 102.136C59.3452 101.939 58.8979 102.344 58.3524 102.037C58.2978 102.77 59.7271 105.439 58.4833 105.395C55.1447 106.281 55.6902 104.05 54.5009 104.98C50.8459 106.259 52.7552 104.498 52.8207 107.506C57.8286 108.316 56.7485 110.678 59.9889 113.161C62.0619 130.858 45.2488 115.239 42.412 123.639C43.3394 126.559 43.4267 130.442 41.9647 133.264C41.6046 133.997 41.3428 134.708 42.1393 134.839C45.587 137.541 38.8988 139.214 47.9 139.783C48.6856 140.658 49.4712 143.02 50.1367 141.686C51.3696 139.236 56.6067 141.194 58.0578 139.083C64.9642 134.019 57.8614 130.562 68.2373 126.198C69.2629 121.058 69.5466 120.205 75.6456 122.228C86.2616 113.686 82.8902 122.042 90.2548 127.03C93.157 127.697 95.241 129.687 97.0085 131.787C97.4558 133.002 98.1977 134.369 97.5103 135.342C96.3975 137.07 97.6958 137.584 98.4705 135.266C100.587 131.12 97.1939 132.258 100.14 130.103C100.718 129.873 102.333 131.569 102.671 131.186C103.598 130.88 98.7542 128.233 97.5322 127.139C97.3249 126.964 96.1902 126.122 95.9938 126.133C93.0807 126.264 92.6879 120.194 89.9384 120.216C88.4219 120.303 89.5893 116.42 89.1529 115.906C88.651 114.747 91.7168 113.883 92.6115 113.872C95.5137 116.398 95.7538 121.309 100.303 121.277C100.664 122.622 102.987 124.011 104.209 124.853C107.21 128.998 102.682 128.441 107.755 133.198C107.995 133.428 108.028 134.259 108.235 134.916C108.279 135.069 108.737 135.998 108.836 136.25C109.217 137.289 110.156 138.339 110.123 139.094C109.872 139.848 110.69 140.57 111.356 140.625C111.869 140.669 112.807 140.275 112.654 139.684C112.491 139.072 112.218 138.306 112.251 138.131C112.272 138.066 112.403 138.077 112.578 138.109C113.102 138.219 113.745 138.066 113.843 138.033C117.215 136.655 112.949 135.834 112.371 134.697C112.316 134.587 112.141 132.619 112 131.547C111.956 131.186 112.087 130.289 112.174 130.103C112.621 129.064 112.589 129.764 112.982 130.191C113.123 130.333 114.029 129.917 114.269 129.698C115.971 128.178 118.328 128.145 120.924 129.261C121.71 129.6 122.332 128.812 123.554 128.298C124.95 128.802 126.598 129.414 126.129 129.567C124.481 131.186 119.822 129.447 119.004 131.962C118.677 132.586 119.451 132.444 120.052 132.378C120.521 132.323 120.684 133.439 120.815 134.117C120.848 134.259 120.619 135.014 120.706 135.681C120.783 136.239 121.197 136.742 121.23 136.775C121.754 137.212 120.608 137.628 121.437 138.241C122.408 139.695 124.339 139.017 125.42 140.745C128.584 143.83 126.903 136.841 132.631 141.336C134.759 143.217 136.69 139.061 138.687 140.177C138.992 140.472 139.68 140.122 140.225 139.892C140.869 139.619 141.927 139.684 142.451 139.827C142.975 139.969 143.662 140.253 144.48 139.837C145.32 139.356 147.044 140.056 147.743 140.078C149.445 139.487 152.205 139.028 153.852 138.711C154.103 138.372 160.366 139.137 159.22 137.978Z" fill="#006A75" fill-opacity="0.15"/>
<path d="M94.6519 136.906C88.0292 136.83 89.6767 137.42 94.3355 139.816C96.2776 141.467 95.0774 138 95.6884 137.53C96.223 136.447 95.8084 136.895 94.6519 136.906Z" fill="#4F4F4F" fill-opacity="0.5"/>
<path d="M94.6519 136.906C88.0292 136.83 89.6767 137.42 94.3355 139.816C96.2776 141.467 95.0774 138 95.6884 137.53C96.223 136.447 95.8084 136.895 94.6519 136.906Z" fill="#006A75" fill-opacity="0.15"/>
</svg>
