<svg width="203" height="170" viewBox="0 0 203 170" fill="none" xmlns="http://www.w3.org/2000/svg">
<path d="M167.687 115.05L167.95 114.223L166.863 113.471L165.663 113.847L165.063 112.682L164.5 112.231L165.438 110.239L165.063 109.637L163.638 110.652L161.726 115.238L161.164 116.516L161.351 117.117L163.151 116.779L165.213 116.967L165.85 116.891L165.025 118.169L166.525 117.38L167.237 116.816V118.169L168.362 118.47L168.7 116.854L167.687 115.05Z" fill="#4F4F4F" fill-opacity="0.5"/>
<path d="M167.687 115.05L167.95 114.223L166.863 113.471L165.663 113.847L165.063 112.682L164.5 112.231L165.438 110.239L165.063 109.637L163.638 110.652L161.726 115.238L161.164 116.516L161.351 117.117L163.151 116.779L165.213 116.967L165.85 116.891L165.025 118.169L166.525 117.38L167.237 116.816V118.169L168.362 118.47L168.7 116.854L167.687 115.05Z" fill="#006A75" fill-opacity="0.15"/>
<path d="M158.576 118.959L158.202 120.086H156.402L154.752 118.508L154.302 116.365L155.015 115.538L154.977 114.411L152.578 114.185L149.803 115.689L148.716 116.816L149.503 115.087L151.415 113.809L152.24 112.757L153.552 112.043H156.139L159.739 112.419L161.238 111.178L162.738 110.013L164.575 109.224L165.213 108.284V106.067L163.638 105.428L163.038 103.699L161.463 103.135L160.376 102.195H159.739L159.401 101.218L158.276 100.466L157.902 97.7227L156.402 94.6407L154.94 90.9573L153.965 92.1225L153.477 94.1145L152.128 95.6555L151.153 95.9186L149.428 94.3024L148.828 92.8742L148.603 91.2204L148.978 90.168L148.903 89.3787L146.504 88.8901L146.316 87.9881L143.954 85.8457L143.204 86.4095L140.092 85.8457L138.968 86.1088L138.705 87.5746L139.567 89.3787L139.043 89.9425L139.717 91.6339L138.405 94.4904L138.518 95.2797L139.417 96.1441L140.655 98.3241L140.58 100.842L138.893 102.496L137.243 103.699L137.73 105.578L137.993 107.42L137.618 109.788L136.755 110.126L135.406 108.848L133.981 106.518L134.056 102.834L130.419 102.271L127.87 100.692L125.32 98.6624L123.745 98.061L121.796 98.6624L121.983 97.6852L120.971 94.5655L119.396 94.4528L118.946 91.897L121.533 85.8457L123.858 84.5302L124.158 83.1395L125.133 81.7488L126.707 82.0119L128.357 78.8171L126.37 78.3661L124.608 76.6748L125.245 76.2613L127.607 78.0279L128.582 77.5392L129.744 75.8479L128.994 74.7203H130.419L130.569 75.6224L132.406 75.0962L134.993 73.3672V71.4128L134.206 68.6314L134.993 67.2408L133.531 64.8729L134.468 64.046L136.381 65.0608L138.818 64.6098L141.63 66.3763L144.367 69.1952L145.604 72.841L143.204 75.7727L143.729 76.7875L144.329 77.8399L142.717 78.103L140.617 77.8399L138.893 79.193V80.6213L140.055 81.4106L142.229 80.5461L144.929 81.4106L146.504 82.8012L147.179 84.5302L148.978 85.2819L151.94 86.9732H153.065L152.315 85.3571L149.653 82.5381L151.04 82.8764L154.415 85.6953L154.715 84.1919L155.015 82.3502L154.077 80.734L151.865 77.9527L151.003 76.5996L151.453 75.2841L153.552 76.1486L154.752 78.6668L156.064 79.1554L157.039 77.013L158.426 74.7579L158.052 73.2545H156.289L156.439 72.2772L154.19 70.5859L151.078 68.669L151.115 66.3763H152.315L151.453 63.1063L149.541 61.0767L146.541 58.3705L144.104 57.2806L143.054 55.7771L140.992 52.0937L138.968 49.6883L136.306 49.1996L134.131 49.6131L132.856 49.6507L130.382 48.9741H128.245L126.145 51.1917L125.283 53.7851L124.87 57.0175L125.208 59.1598L126.932 62.2419L128.32 63.3319L129.932 63.5198L130.269 64.0084L130.307 66.2259L130.569 67.2032L129.782 68.7442L128.395 69.5711L128.994 71.939L128.17 72.39L126.932 70.7362L127.232 68.7442L126.52 66.6394L125.695 66.0756L125.17 67.9173V68.9321L124.42 69.0449L124.308 67.0528L123.745 66.3763L124.72 65.4367L123.295 64.8353L122.358 65.2487L121.946 64.2715L122.808 62.7681L121.383 60.6257L121.271 58.7464L119.584 56.7544L120.708 54.4616L120.258 53.3717H122.658L124.758 48.4855L123.37 47.9217L122.246 48.5231L121.533 47.9217L119.621 47.6586L118.346 48.4855L118.834 48.9365L117.859 49.1996L117.896 51.2669L118.346 53.8227L118.609 56.1906L117.859 57.7692L117.222 60.2498V61.9036L116.959 63.0312L119.171 65.1735L120.109 66.5266L119.584 67.6918L120.558 67.6542L119.809 69.4583L118.421 70.0597L118.159 71.5631L119.284 72.841L118.009 72.5403L117.334 71.7886L117.522 70.5483L117.297 69.3456L115.947 68.7442L114.71 70.3228L112.572 70.7362L110.21 71.1497L108.298 69.9093L106.611 68.7442L106.049 67.3159L102.712 68.5938L102.974 69.4583H104.249L103.799 70.8114L104.661 72.5028L104.286 74.3445L103.574 72.1645L102.712 71.5631L101.212 70.1349L100.425 70.8114L96.7128 71.0369L94.8757 70.2852L95.5506 69.3456L96.4504 69.4207L96.5254 68.7818L94.3133 66.7897L92.7761 67.2408L89.4392 65.6998L87.527 64.3091H85.9523V65.136L84.4901 65.8125L84.1527 63.6325L83.4778 63.4822L83.1029 65.5494H82.4655L80.7033 62.505L79.8785 61.7908V63.2191L78.9411 64.497L78.3412 64.3091V63.1815H76.9915L74.9669 64.5346L74.067 65.3615L73.1672 65.9253L72.7173 65.0232L71.0676 65.6622L70.6177 66.3387L71.2176 67.8421L68.8555 66.8273L66.306 64.9856L64.2063 64.9104L62.2192 63.1439L59.9321 63.5574L56.9702 62.7681L54.6456 61.866L53.1834 62.1291L51.9086 61.5653L51.1588 60.2498L49.2091 60.7009L48.2343 59.4981L46.1347 58.7464L44.9349 60.5129L42.8728 60.5505L39.9858 62.8057L38.8235 64.5346L38.6736 65.9253L36.9864 67.3911H35.1117V69.1576L37.0614 70.9993L38.0362 72.4652L38.9735 73.2921L40.6607 73.029L40.2858 74.4572L40.5107 75.66L37.9237 76.0734L37.6987 74.6076L36.0115 75.2465L32.9746 77.201L33.687 77.9151L34.6618 77.9527L34.8868 80.2078L36.5365 80.5085L38.1112 80.3206L39.4234 80.8844L41.1481 79.2306L41.2981 80.2454L40.9231 80.6588L41.448 82.4254L40.6982 82.9892L39.4984 83.3274L38.7485 84.5678L37.3988 83.8536L36.424 85.5074L35.5241 87.7249L35.4866 88.4391L36.7239 90.0553L36.0865 90.5815L37.3613 92.0097L39.2734 92.1225L39.7234 91.2204L40.1358 93.5131L40.2483 95.2421L42.1229 94.3776L43.2102 95.2045L44.635 95.1293L45.4973 94.7911L45.1224 95.9938L44.8974 97.7603L42.8728 99.4517L40.4357 101.105L38.5986 102.646L36.9489 103.248L36.6114 103.699L36.8739 104.075L37.9237 103.699L40.0608 102.797L42.0854 101.519L43.8851 100.805L46.5471 98.6248L47.7469 96.9334L48.9467 96.2569L50.2214 94.6031L49.4716 93.4756L51.7961 90.168L53.5208 88.5894L54.1957 89.5291L52.771 90.0928L52.0586 92.5359L52.5835 93.9642L54.7206 92.1225L56.3328 92.0097L56.2578 90.6566L56.2203 89.5667L58.1325 89.5291L59.7822 91.0325L61.6193 91.9345L64.5063 92.0097L66.7934 93.3252L70.2802 97.0462L74.6669 102.496L77.2914 106.142L80.0284 108.848L81.8281 111.479L81.3782 111.817L80.1034 110.69L79.5785 111.366L82.3155 113.509L83.8152 115.162L84.5651 117.981L84.8275 121.026L84.4901 123.657L84.2277 125.574L84.6026 128.092L85.015 130.911L86.7397 133.392L88.7643 137.413L91.0889 138.654L92.7761 140.195H95.5881L99.8623 141.848H103.312L103.574 141.247L105.224 141.322L106.948 142.713L107.511 144.179L109.048 145.118L109.873 144.066L111.298 144.028L113.247 146.772L113.885 148.463L116.322 149.14V146.659L117.784 145.607L119.059 144.517L122.021 144.367L124.27 144.667L126.07 143.314L129.519 143.389L130.532 144.216L131.994 143.728L133.494 145.231L133.756 147.937L135.406 150.08H136.156L136.605 147.712L135.368 144.367L134.993 142.074L136.793 140.044L139.043 138.165L140.992 136.286L141.592 135.008L141.067 133.316L141.892 132.828L143.317 129.821L144.142 127.866L146.729 127.453L148.003 126.1L147.816 124.296L150.066 122.529L152.053 121.702L154.602 120.274V121.176L152.952 122.454L152.99 123.469L153.552 123.92L154.602 123.018L155.465 121.665L157.564 121.74L158.764 121.063L160.301 119.56L159.551 118.094L158.576 118.959Z" fill="#4F4F4F" fill-opacity="0.5"/>
<path d="M158.576 118.959L158.202 120.086H156.402L154.752 118.508L154.302 116.365L155.015 115.538L154.977 114.411L152.578 114.185L149.803 115.689L148.716 116.816L149.503 115.087L151.415 113.809L152.24 112.757L153.552 112.043H156.139L159.739 112.419L161.238 111.178L162.738 110.013L164.575 109.224L165.213 108.284V106.067L163.638 105.428L163.038 103.699L161.463 103.135L160.376 102.195H159.739L159.401 101.218L158.276 100.466L157.902 97.7227L156.402 94.6407L154.94 90.9573L153.965 92.1225L153.477 94.1145L152.128 95.6555L151.153 95.9186L149.428 94.3024L148.828 92.8742L148.603 91.2204L148.978 90.168L148.903 89.3787L146.504 88.8901L146.316 87.9881L143.954 85.8457L143.204 86.4095L140.092 85.8457L138.968 86.1088L138.705 87.5746L139.567 89.3787L139.043 89.9425L139.717 91.6339L138.405 94.4904L138.518 95.2797L139.417 96.1441L140.655 98.3241L140.58 100.842L138.893 102.496L137.243 103.699L137.73 105.578L137.993 107.42L137.618 109.788L136.755 110.126L135.406 108.848L133.981 106.518L134.056 102.834L130.419 102.271L127.87 100.692L125.32 98.6624L123.745 98.061L121.796 98.6624L121.983 97.6852L120.971 94.5655L119.396 94.4528L118.946 91.897L121.533 85.8457L123.858 84.5302L124.158 83.1395L125.133 81.7488L126.707 82.0119L128.357 78.8171L126.37 78.3661L124.608 76.6748L125.245 76.2613L127.607 78.0279L128.582 77.5392L129.744 75.8479L128.994 74.7203H130.419L130.569 75.6224L132.406 75.0962L134.993 73.3672V71.4128L134.206 68.6314L134.993 67.2408L133.531 64.8729L134.468 64.046L136.381 65.0608L138.818 64.6098L141.63 66.3763L144.367 69.1952L145.604 72.841L143.204 75.7727L143.729 76.7875L144.329 77.8399L142.717 78.103L140.617 77.8399L138.893 79.193V80.6213L140.055 81.4106L142.229 80.5461L144.929 81.4106L146.504 82.8012L147.179 84.5302L148.978 85.2819L151.94 86.9732H153.065L152.315 85.3571L149.653 82.5381L151.04 82.8764L154.415 85.6953L154.715 84.1919L155.015 82.3502L154.077 80.734L151.865 77.9527L151.003 76.5996L151.453 75.2841L153.552 76.1486L154.752 78.6668L156.064 79.1554L157.039 77.013L158.426 74.7579L158.052 73.2545H156.289L156.439 72.2772L154.19 70.5859L151.078 68.669L151.115 66.3763H152.315L151.453 63.1063L149.541 61.0767L146.541 58.3705L144.104 57.2806L143.054 55.7771L140.992 52.0937L138.968 49.6883L136.306 49.1996L134.131 49.6131L132.856 49.6507L130.382 48.9741H128.245L126.145 51.1917L125.283 53.7851L124.87 57.0175L125.208 59.1598L126.932 62.2419L128.32 63.3319L129.932 63.5198L130.269 64.0084L130.307 66.2259L130.569 67.2032L129.782 68.7442L128.395 69.5711L128.994 71.939L128.17 72.39L126.932 70.7362L127.232 68.7442L126.52 66.6394L125.695 66.0756L125.17 67.9173V68.9321L124.42 69.0449L124.308 67.0528L123.745 66.3763L124.72 65.4367L123.295 64.8353L122.358 65.2487L121.946 64.2715L122.808 62.7681L121.383 60.6257L121.271 58.7464L119.584 56.7544L120.708 54.4616L120.258 53.3717H122.658L124.758 48.4855L123.37 47.9217L122.246 48.5231L121.533 47.9217L119.621 47.6586L118.346 48.4855L118.834 48.9365L117.859 49.1996L117.896 51.2669L118.346 53.8227L118.609 56.1906L117.859 57.7692L117.222 60.2498V61.9036L116.959 63.0312L119.171 65.1735L120.109 66.5266L119.584 67.6918L120.558 67.6542L119.809 69.4583L118.421 70.0597L118.159 71.5631L119.284 72.841L118.009 72.5403L117.334 71.7886L117.522 70.5483L117.297 69.3456L115.947 68.7442L114.71 70.3228L112.572 70.7362L110.21 71.1497L108.298 69.9093L106.611 68.7442L106.049 67.3159L102.712 68.5938L102.974 69.4583H104.249L103.799 70.8114L104.661 72.5028L104.286 74.3445L103.574 72.1645L102.712 71.5631L101.212 70.1349L100.425 70.8114L96.7128 71.0369L94.8757 70.2852L95.5506 69.3456L96.4504 69.4207L96.5254 68.7818L94.3133 66.7897L92.7761 67.2408L89.4392 65.6998L87.527 64.3091H85.9523V65.136L84.4901 65.8125L84.1527 63.6325L83.4778 63.4822L83.1029 65.5494H82.4655L80.7033 62.505L79.8785 61.7908V63.2191L78.9411 64.497L78.3412 64.3091V63.1815H76.9915L74.9669 64.5346L74.067 65.3615L73.1672 65.9253L72.7173 65.0232L71.0676 65.6622L70.6177 66.3387L71.2176 67.8421L68.8555 66.8273L66.306 64.9856L64.2063 64.9104L62.2192 63.1439L59.9321 63.5574L56.9702 62.7681L54.6456 61.866L53.1834 62.1291L51.9086 61.5653L51.1588 60.2498L49.2091 60.7009L48.2343 59.4981L46.1347 58.7464L44.9349 60.5129L42.8728 60.5505L39.9858 62.8057L38.8235 64.5346L38.6736 65.9253L36.9864 67.3911H35.1117V69.1576L37.0614 70.9993L38.0362 72.4652L38.9735 73.2921L40.6607 73.029L40.2858 74.4572L40.5107 75.66L37.9237 76.0734L37.6987 74.6076L36.0115 75.2465L32.9746 77.201L33.687 77.9151L34.6618 77.9527L34.8868 80.2078L36.5365 80.5085L38.1112 80.3206L39.4234 80.8844L41.1481 79.2306L41.2981 80.2454L40.9231 80.6588L41.448 82.4254L40.6982 82.9892L39.4984 83.3274L38.7485 84.5678L37.3988 83.8536L36.424 85.5074L35.5241 87.7249L35.4866 88.4391L36.7239 90.0553L36.0865 90.5815L37.3613 92.0097L39.2734 92.1225L39.7234 91.2204L40.1358 93.5131L40.2483 95.2421L42.1229 94.3776L43.2102 95.2045L44.635 95.1293L45.4973 94.7911L45.1224 95.9938L44.8974 97.7603L42.8728 99.4517L40.4357 101.105L38.5986 102.646L36.9489 103.248L36.6114 103.699L36.8739 104.075L37.9237 103.699L40.0608 102.797L42.0854 101.519L43.8851 100.805L46.5471 98.6248L47.7469 96.9334L48.9467 96.2569L50.2214 94.6031L49.4716 93.4756L51.7961 90.168L53.5208 88.5894L54.1957 89.5291L52.771 90.0928L52.0586 92.5359L52.5835 93.9642L54.7206 92.1225L56.3328 92.0097L56.2578 90.6566L56.2203 89.5667L58.1325 89.5291L59.7822 91.0325L61.6193 91.9345L64.5063 92.0097L66.7934 93.3252L70.2802 97.0462L74.6669 102.496L77.2914 106.142L80.0284 108.848L81.8281 111.479L81.3782 111.817L80.1034 110.69L79.5785 111.366L82.3155 113.509L83.8152 115.162L84.5651 117.981L84.8275 121.026L84.4901 123.657L84.2277 125.574L84.6026 128.092L85.015 130.911L86.7397 133.392L88.7643 137.413L91.0889 138.654L92.7761 140.195H95.5881L99.8623 141.848H103.312L103.574 141.247L105.224 141.322L106.948 142.713L107.511 144.179L109.048 145.118L109.873 144.066L111.298 144.028L113.247 146.772L113.885 148.463L116.322 149.14V146.659L117.784 145.607L119.059 144.517L122.021 144.367L124.27 144.667L126.07 143.314L129.519 143.389L130.532 144.216L131.994 143.728L133.494 145.231L133.756 147.937L135.406 150.08H136.156L136.605 147.712L135.368 144.367L134.993 142.074L136.793 140.044L139.043 138.165L140.992 136.286L141.592 135.008L141.067 133.316L141.892 132.828L143.317 129.821L144.142 127.866L146.729 127.453L148.003 126.1L147.816 124.296L150.066 122.529L152.053 121.702L154.602 120.274V121.176L152.952 122.454L152.99 123.469L153.552 123.92L154.602 123.018L155.465 121.665L157.564 121.74L158.764 121.063L160.301 119.56L159.551 118.094L158.576 118.959Z" fill="#006A75" fill-opacity="0.15"/>
<path d="M134.506 80.7716L133.456 79.6441L132.481 78.291L131.207 78.0279L130.757 78.4037L130.457 76.9379L129.932 76.6372L129.444 77.0507L129.294 81.0347L128.057 82.6885L128.582 83.2523L129.144 82.6885L130.007 82.8388L130.269 84.1543L132.181 82.5006L132.556 81.5985L133.644 82.0495L134.168 82.5757L135.443 83.2899L136.043 82.3502L135.593 81.7113H134.731L134.506 80.7716Z" fill="#4F4F4F" fill-opacity="0.5"/>
<path d="M134.506 80.7716L133.456 79.6441L132.481 78.291L131.207 78.0279L130.757 78.4037L130.457 76.9379L129.932 76.6372L129.444 77.0507L129.294 81.0347L128.057 82.6885L128.582 83.2523L129.144 82.6885L130.007 82.8388L130.269 84.1543L132.181 82.5006L132.556 81.5985L133.644 82.0495L134.168 82.5757L135.443 83.2899L136.043 82.3502L135.593 81.7113H134.731L134.506 80.7716Z" fill="#006A75" fill-opacity="0.15"/>
<path d="M114.109 48.4479L112.535 48.6734L111.672 49.7258L111.297 50.44L112.535 51.3044L112.91 52.5448L112.122 53.3717L111.485 53.4092L110.735 52.3193L110.098 52.3944V53.522L111.147 55.3261L112.16 55.2885L113.172 56.5289L113.697 57.6188L114.072 58.4081L114.634 58.6712L117.034 56.3785L117.296 53.5596L115.984 52.2441L114.934 52.5448L115.347 51.4924L116.284 50.252V48.8238L115.647 47.6586L114.109 48.4479Z" fill="#4F4F4F" fill-opacity="0.5"/>
<path d="M114.109 48.4479L112.535 48.6734L111.672 49.7258L111.297 50.44L112.535 51.3044L112.91 52.5448L112.122 53.3717L111.485 53.4092L110.735 52.3193L110.098 52.3944V53.522L111.147 55.3261L112.16 55.2885L113.172 56.5289L113.697 57.6188L114.072 58.4081L114.634 58.6712L117.034 56.3785L117.296 53.5596L115.984 52.2441L114.934 52.5448L115.347 51.4924L116.284 50.252V48.8238L115.647 47.6586L114.109 48.4479Z" fill="#006A75" fill-opacity="0.15"/>
<path d="M114.635 66.0005L113.697 66.6019V67.3912L114.26 67.2408L115.459 68.1429L116.359 68.3684L117.297 68.6691L118.721 67.5415L117.971 67.3536V66.5643L117.184 65.7374L115.759 64.046H115.234L114.972 65.136L114.635 66.0005Z" fill="#4F4F4F" fill-opacity="0.5"/>
<path d="M114.635 66.0005L113.697 66.6019V67.3912L114.26 67.2408L115.459 68.1429L116.359 68.3684L117.297 68.6691L118.721 67.5415L117.971 67.3536V66.5643L117.184 65.7374L115.759 64.046H115.234L114.972 65.136L114.635 66.0005Z" fill="#006A75" fill-opacity="0.15"/>
<path d="M85.5023 59.6109H86.4397L87.4145 58.5209H87.9769L88.7642 58.1451L88.9142 57.2054L89.5891 55.5516L91.0513 53.4844L93.7508 51.3421L95.0256 50.3648L94.0883 48.9742L91.8012 46.9445L91.2388 47.358L89.5141 46.9821L87.8644 45.817L83.8901 46.8318L84.3775 47.9969L85.0524 49.6131L84.2276 51.2293L84.0401 52.6951L82.8403 55.3261V56.2658L84.79 57.694L85.5023 59.6109Z" fill="#4F4F4F" fill-opacity="0.5"/>
<path d="M85.5023 59.6109H86.4397L87.4145 58.5209H87.9769L88.7642 58.1451L88.9142 57.2054L89.5891 55.5516L91.0513 53.4844L93.7508 51.3421L95.0256 50.3648L94.0883 48.9742L91.8012 46.9445L91.2388 47.358L89.5141 46.9821L87.8644 45.817L83.8901 46.8318L84.3775 47.9969L85.0524 49.6131L84.2276 51.2293L84.0401 52.6951L82.8403 55.3261V56.2658L84.79 57.694L85.5023 59.6109Z" fill="#006A75" fill-opacity="0.15"/>
<path d="M105.224 49.5004L105.074 50.3648L105.673 50.9286L105.861 51.8682L105.186 51.2293L104.136 51.1541L103.461 51.3796L103.349 52.5448L103.799 54.6496L103.986 56.153L104.549 56.9047L103.461 57.5813V56.2282L103.049 55.2509L102.899 54.0858L102.449 53.973L102.224 53.5972L101.849 53.1462L101.287 52.3193L100.424 52.3569V52.9582L100.949 53.522L101.437 53.8227L100.612 54.3865L99.9745 54.7248L99.7121 54.3865L99.7871 53.8603L99.5996 53.3341L98.4373 52.6951L97.6125 52.3944L97.1251 52.8831L97.1625 53.7851L96.5627 53.6724L96.1127 54.0858L95.8878 53.6724L96.2627 53.1462H96.4877L96.5252 51.4548L96.0378 51.0789L95.4379 50.9662L92.4009 53.1462L91.3511 54.2737V55.1758L90.4888 56.8295L90.6013 57.6188L92.026 57.8819L91.5011 58.4081L92.6259 58.6712L94.2756 58.0323L94.613 58.1826L94.5005 58.6712L91.4636 59.8364L91.7635 60.8136L92.9633 61.3022L94.8755 61.4526L96.7501 61.1519L98.3623 61.6781L99.1122 62.2795V62.6553H97.2375L94.8005 62.8808L92.7009 63.3694L92.7759 64.046L94.0506 65.7749L95.1754 66.0756L96.8626 66.3387L97.0501 67.6542L97.6125 68.2931H100.424L102.449 67.8045L104.324 66.9025L104.774 66.0756L105.486 65.3239L105.786 66.1508L107.098 66.677L108.373 67.3911L109.873 67.3535L110.81 66.8273L110.698 65.6246L110.435 65.2487L110.098 64.948L110.698 64.1963L111.185 64.5346L111.897 64.7225L112.122 63.4822L111.672 62.9184L110.885 62.8808L109.648 61.2646L109.31 61.9036L108.223 60.4002L107.661 59.6109L108.036 58.6712L107.923 57.5061L107.211 55.2134L106.686 53.1462L107.211 51.9058L107.661 50.7783L107.586 49.7259L106.611 49.2748L105.224 49.5004Z" fill="#4F4F4F" fill-opacity="0.5"/>
<path d="M105.224 49.5004L105.074 50.3648L105.673 50.9286L105.861 51.8682L105.186 51.2293L104.136 51.1541L103.461 51.3796L103.349 52.5448L103.799 54.6496L103.986 56.153L104.549 56.9047L103.461 57.5813V56.2282L103.049 55.2509L102.899 54.0858L102.449 53.973L102.224 53.5972L101.849 53.1462L101.287 52.3193L100.424 52.3569V52.9582L100.949 53.522L101.437 53.8227L100.612 54.3865L99.9745 54.7248L99.7121 54.3865L99.7871 53.8603L99.5996 53.3341L98.4373 52.6951L97.6125 52.3944L97.1251 52.8831L97.1625 53.7851L96.5627 53.6724L96.1127 54.0858L95.8878 53.6724L96.2627 53.1462H96.4877L96.5252 51.4548L96.0378 51.0789L95.4379 50.9662L92.4009 53.1462L91.3511 54.2737V55.1758L90.4888 56.8295L90.6013 57.6188L92.026 57.8819L91.5011 58.4081L92.6259 58.6712L94.2756 58.0323L94.613 58.1826L94.5005 58.6712L91.4636 59.8364L91.7635 60.8136L92.9633 61.3022L94.8755 61.4526L96.7501 61.1519L98.3623 61.6781L99.1122 62.2795V62.6553H97.2375L94.8005 62.8808L92.7009 63.3694L92.7759 64.046L94.0506 65.7749L95.1754 66.0756L96.8626 66.3387L97.0501 67.6542L97.6125 68.2931H100.424L102.449 67.8045L104.324 66.9025L104.774 66.0756L105.486 65.3239L105.786 66.1508L107.098 66.677L108.373 67.3911L109.873 67.3535L110.81 66.8273L110.698 65.6246L110.435 65.2487L110.098 64.948L110.698 64.1963L111.185 64.5346L111.897 64.7225L112.122 63.4822L111.672 62.9184L110.885 62.8808L109.648 61.2646L109.31 61.9036L108.223 60.4002L107.661 59.6109L108.036 58.6712L107.923 57.5061L107.211 55.2134L106.686 53.1462L107.211 51.9058L107.661 50.7783L107.586 49.7259L106.611 49.2748L105.224 49.5004Z" fill="#006A75" fill-opacity="0.15"/>
<path d="M121.571 38.8636L122.32 41.908L122.395 43.4866L122.883 45.0652L124.645 45.8169H131.244H135.593L136.043 43.9L137.243 41.908L134.506 40.2166L130.419 40.6301L129.144 41.3066L126.407 40.7804L125.245 38.8636L125.545 37.2098L123.295 35.7815H121.046L120.446 34.5036L117.296 33.6016V35.0298V37.2098H120.483L121.571 38.8636Z" fill="#4F4F4F" fill-opacity="0.5"/>
<path d="M121.571 38.8636L122.32 41.908L122.395 43.4866L122.883 45.0652L124.645 45.8169H131.244H135.593L136.043 43.9L137.243 41.908L134.506 40.2166L130.419 40.6301L129.144 41.3066L126.407 40.7804L125.245 38.8636L125.545 37.2098L123.295 35.7815H121.046L120.446 34.5036L117.296 33.6016V35.0298V37.2098H120.483L121.571 38.8636Z" fill="#006A75" fill-opacity="0.15"/>
<path d="M119.096 45.2907H120.483V43.2235L119.771 40.8181L118.721 41.1187L117.296 42.9604L118.009 44.5014L119.096 45.2907Z" fill="#4F4F4F" fill-opacity="0.5"/>
<path d="M119.096 45.2907H120.483V43.2235L119.771 40.8181L118.721 41.1187L117.296 42.9604L118.009 44.5014L119.096 45.2907Z" fill="#006A75" fill-opacity="0.15"/>
<path d="M111.372 40.8181H113.022L112.46 43.0732L113.285 44.088L115.609 43.0732L116.209 41.4194V38.9764L115.422 36.5333L113.697 36.1574H112.085L111.185 37.5105L109.61 36.5709L107.998 35.7064V36.5333L110.098 40.8181H111.372Z" fill="#4F4F4F" fill-opacity="0.5"/>
<path d="M111.372 40.8181H113.022L112.46 43.0732L113.285 44.088L115.609 43.0732L116.209 41.4194V38.9764L115.422 36.5333L113.697 36.1574H112.085L111.185 37.5105L109.61 36.5709L107.998 35.7064V36.5333L110.098 40.8181H111.372Z" fill="#006A75" fill-opacity="0.15"/>
<path d="M90.1889 39.6905L91.5387 37.2098L92.4385 34.9922L92.1761 37.2098L93.0009 37.4353L93.9007 36.1574L94.3507 35.4809V33.2633L95.3255 32.3237L93.7883 31.1585L93.3009 31.9854L91.4637 32.0982L89.5516 33.2633L88.9142 35.5184L87.6019 37.2098L86.3271 38.1119L88.0893 39.8784L90.1889 39.6905Z" fill="#4F4F4F" fill-opacity="0.5"/>
<path d="M90.1889 39.6905L91.5387 37.2098L92.4385 34.9922L92.1761 37.2098L93.0009 37.4353L93.9007 36.1574L94.3507 35.4809V33.2633L95.3255 32.3237L93.7883 31.1585L93.3009 31.9854L91.4637 32.0982L89.5516 33.2633L88.9142 35.5184L87.6019 37.2098L86.3271 38.1119L88.0893 39.8784L90.1889 39.6905Z" fill="#006A75" fill-opacity="0.15"/>
<path d="M93.7885 38.6005L92.3638 42.6597L93.7885 43.0732L95.0258 43.3363L96.8629 42.4718L97.1629 43.0732H99.8999L97.5753 44.088L96.1506 45.2907L97.5753 46.5311H99.1125L101.287 44.4263L103.912 44.088L105.486 43.449L106.949 40.2542L105.786 38.6005L104.437 39.0891L103.349 38.6005L103.462 37.736L103.049 36.4581L102.974 34.8043L101.999 35.1802L101.287 37.736L102.599 40.818H101.025L99.4125 39.8784L98.2127 37.736L97.2754 37.9991L96.3005 36.6836L95.0258 37.0219L93.7885 38.6005Z" fill="#4F4F4F" fill-opacity="0.5"/>
<path d="M93.7885 38.6005L92.3638 42.6597L93.7885 43.0732L95.0258 43.3363L96.8629 42.4718L97.1629 43.0732H99.8999L97.5753 44.088L96.1506 45.2907L97.5753 46.5311H99.1125L101.287 44.4263L103.912 44.088L105.486 43.449L106.949 40.2542L105.786 38.6005L104.437 39.0891L103.349 38.6005L103.462 37.736L103.049 36.4581L102.974 34.8043L101.999 35.1802L101.287 37.736L102.599 40.818H101.025L99.4125 39.8784L98.2127 37.736L97.2754 37.9991L96.3005 36.6836L95.0258 37.0219L93.7885 38.6005Z" fill="#006A75" fill-opacity="0.15"/>
<path d="M124.233 32.0606V32.9626L123.07 34.7667H125.057H127.27L128.057 35.8191V37.285L129.707 37.8864L138.855 38.187L140.88 33.7143L146.016 31.6847L150.028 28.6403L153.177 27.6631L156.777 26.9113L159.739 23.9045H152.502L144.741 23.5286H140.467L137.805 23.1904L135.031 21.8373L128.882 24.8065L125.47 25.1824L125.882 26.5355L128.057 28.3396L131.619 28.4899L131.731 30.8578H128.394L125.657 30.4068L122.658 27.5879L121.158 28.3396V29.5048L122.808 31.0082L124.233 32.0606Z" fill="#4F4F4F" fill-opacity="0.5"/>
<path d="M124.233 32.0606V32.9626L123.07 34.7667H125.057H127.27L128.057 35.8191V37.285L129.707 37.8864L138.855 38.187L140.88 33.7143L146.016 31.6847L150.028 28.6403L153.177 27.6631L156.777 26.9113L159.739 23.9045H152.502L144.741 23.5286H140.467L137.805 23.1904L135.031 21.8373L128.882 24.8065L125.47 25.1824L125.882 26.5355L128.057 28.3396L131.619 28.4899L131.731 30.8578H128.394L125.657 30.4068L122.658 27.5879L121.158 28.3396V29.5048L122.808 31.0082L124.233 32.0606Z" fill="#006A75" fill-opacity="0.15"/>
</svg>
