<svg width="203" height="170" viewBox="0 0 203 170" fill="none" xmlns="http://www.w3.org/2000/svg">
<path d="M133.272 54.9439C130.681 51.5983 124.209 52.0199 122.297 51.7479C120.384 51.4759 114.279 49.3543 114.17 47.6135C114.062 45.8727 113.438 44.0775 112.61 43.1391C111.959 42.4319 111.443 40.0655 111.036 39.0319C110.819 38.4879 109.354 37.3047 108.337 36.7063C108.011 36.5159 107.645 36.3119 107.251 36.0943C107.075 35.9991 105.773 35.3599 105.067 35.3055C104.158 35.2239 102.639 35.4007 102.218 35.3327C101.689 35.2511 100.821 34.7071 100.387 34.2991C99.749 33.7007 98.7993 32.0823 98.2838 31.5519C96.9814 30.1919 93.8204 31.1847 94.6616 29.8111C94.7294 29.7023 95.1364 29.3215 95.2585 29.0495C95.3263 28.9271 95.2992 28.7775 95.055 28.6551C94.6344 28.6007 94.3902 28.3151 94.1732 28.1791C94.0375 28.0975 93.6169 27.9479 93.2778 27.7983C93.2235 27.7711 91.7176 26.9415 91.4192 26.9415C90.7815 26.9551 89.6148 27.2543 89.3706 27.3223C87.4849 27.8119 87.1864 26.9823 85.8433 26.7375C85.2735 26.6287 82.8858 25.3503 82.0854 25.1327C81.8141 25.0647 81.4342 24.9423 80.8644 24.7111C80.8373 24.6975 78.0969 23.3103 77.9883 23.2967C77.0251 23.1199 76.7131 24.7247 73.6877 25.6223C73.5521 25.6631 71.9377 25.9215 71.7884 26.0439C70.6353 27.0367 71.0151 28.2471 70.6895 28.7231C70.5946 28.8591 70.0248 29.0767 69.9298 29.1447C69.4957 29.4983 69.2108 29.8519 69.0209 30.1783C68.2069 31.5655 67.8813 32.0551 67.6507 32.1639C67.4065 32.2863 67.0673 32.1095 66.9588 32.6127C66.9316 32.7215 67.2979 33.5511 67.4065 33.8775C67.7592 34.9927 67.4879 36.6383 67.4472 37.8079C67.42 38.6103 67.1894 40.6775 66.796 41.1535C66.6332 41.3439 66.4568 41.5207 66.2262 41.6839C65.9684 41.8743 65.1137 42.8263 64.7203 43.2343C64.666 43.2887 63.445 44.3767 62.8752 45.0975C62.7938 45.2063 62.0477 46.7159 61.7492 48.1167C61.6271 48.7015 61.6136 49.2727 61.6 49.7215C61.5864 50.2247 61.8985 51.1495 62.0748 51.2719C62.821 51.8431 62.8074 52.5231 61.9799 53.3799C61.5864 53.7879 61.193 54.2367 60.8945 54.8896C65.0594 65.4976 65.2494 65.0488 70.4318 73.0864C72.0462 75.6024 79.7927 77.0304 81.0815 81.7904C82.5602 87.2304 82.1668 92.684 82.6145 100.64C82.8451 103.414 82.8858 107.467 83.0079 109.657C83.2114 113.03 83.5099 116.634 83.7405 119.449C83.8219 120.374 83.944 121.203 84.1475 121.924L85.165 128.085C85.165 128.085 85.7212 132.274 86.3317 133.96C86.9422 135.646 88.7466 139.033 88.7466 139.033C88.7466 139.033 90.2253 141.93 90.8765 142.664C91.5277 143.398 93.332 144.894 94.2681 145.316C95.2042 145.738 96.7779 146.608 97.3613 146.703C97.9447 146.798 98.2295 146.975 98.6365 146.676C99.0571 146.363 100.577 145.466 100.834 145.044C101.106 144.622 101.486 136.258 101.486 136.258C101.974 133.647 97.5512 134.722 97.6462 132.124C97.9311 130.342 99.6812 130.927 99.844 129.866C99.8847 129.567 99.8168 129.159 99.5726 128.534C99.0028 127.704 102.042 123.148 102.096 122.89C102.15 122.618 101.879 122.264 101.743 121.815C101.635 121.489 101.404 120.197 101.377 120.034C101.201 118.823 106.858 119.571 108.296 117.477C108.879 116.634 110.941 112.622 113.248 109.167C113.722 108.446 114.062 107.603 114.17 106.638C116.612 104.992 116.042 101.606 118.267 99.9056C118.281 99.4024 118.254 97.5936 118.091 96.3016C117.996 95.5672 118.417 93.5136 118.647 93.364C120.112 92.3848 121.7 90.8344 123.504 90.2224C123.653 90.168 127.343 89.5695 128.917 88.0735C132.064 84.5239 131.44 69.6455 132.376 70.7879C133.706 70.312 134.669 66.8032 134.534 66.5992C136.297 66.3951 137.912 63.4439 137.966 60.6423C138.074 57.8407 136.433 56.8344 133.272 54.9439Z" fill="#4F4F4F" fill-opacity="0.5"/>
<path d="M133.272 54.9439C130.681 51.5983 124.209 52.0199 122.297 51.7479C120.384 51.4759 114.279 49.3543 114.17 47.6135C114.062 45.8727 113.438 44.0775 112.61 43.1391C111.959 42.4319 111.443 40.0655 111.036 39.0319C110.819 38.4879 109.354 37.3047 108.337 36.7063C108.011 36.5159 107.645 36.3119 107.251 36.0943C107.075 35.9991 105.773 35.3599 105.067 35.3055C104.158 35.2239 102.639 35.4007 102.218 35.3327C101.689 35.2511 100.821 34.7071 100.387 34.2991C99.749 33.7007 98.7993 32.0823 98.2838 31.5519C96.9814 30.1919 93.8204 31.1847 94.6616 29.8111C94.7294 29.7023 95.1364 29.3215 95.2585 29.0495C95.3263 28.9271 95.2992 28.7775 95.055 28.6551C94.6344 28.6007 94.3902 28.3151 94.1732 28.1791C94.0375 28.0975 93.6169 27.9479 93.2778 27.7983C93.2235 27.7711 91.7176 26.9415 91.4192 26.9415C90.7815 26.9551 89.6148 27.2543 89.3706 27.3223C87.4849 27.8119 87.1864 26.9823 85.8433 26.7375C85.2735 26.6287 82.8858 25.3503 82.0854 25.1327C81.8141 25.0647 81.4342 24.9423 80.8644 24.7111C80.8373 24.6975 78.0969 23.3103 77.9883 23.2967C77.0251 23.1199 76.7131 24.7247 73.6877 25.6223C73.5521 25.6631 71.9377 25.9215 71.7884 26.0439C70.6353 27.0367 71.0151 28.2471 70.6895 28.7231C70.5946 28.8591 70.0248 29.0767 69.9298 29.1447C69.4957 29.4983 69.2108 29.8519 69.0209 30.1783C68.2069 31.5655 67.8813 32.0551 67.6507 32.1639C67.4065 32.2863 67.0673 32.1095 66.9588 32.6127C66.9316 32.7215 67.2979 33.5511 67.4065 33.8775C67.7592 34.9927 67.4879 36.6383 67.4472 37.8079C67.42 38.6103 67.1894 40.6775 66.796 41.1535C66.6332 41.3439 66.4568 41.5207 66.2262 41.6839C65.9684 41.8743 65.1137 42.8263 64.7203 43.2343C64.666 43.2887 63.445 44.3767 62.8752 45.0975C62.7938 45.2063 62.0477 46.7159 61.7492 48.1167C61.6271 48.7015 61.6136 49.2727 61.6 49.7215C61.5864 50.2247 61.8985 51.1495 62.0748 51.2719C62.821 51.8431 62.8074 52.5231 61.9799 53.3799C61.5864 53.7879 61.193 54.2367 60.8945 54.8896C65.0594 65.4976 65.2494 65.0488 70.4318 73.0864C72.0462 75.6024 79.7927 77.0304 81.0815 81.7904C82.5602 87.2304 82.1668 92.684 82.6145 100.64C82.8451 103.414 82.8858 107.467 83.0079 109.657C83.2114 113.03 83.5099 116.634 83.7405 119.449C83.8219 120.374 83.944 121.203 84.1475 121.924L85.165 128.085C85.165 128.085 85.7212 132.274 86.3317 133.96C86.9422 135.646 88.7466 139.033 88.7466 139.033C88.7466 139.033 90.2253 141.93 90.8765 142.664C91.5277 143.398 93.332 144.894 94.2681 145.316C95.2042 145.738 96.7779 146.608 97.3613 146.703C97.9447 146.798 98.2295 146.975 98.6365 146.676C99.0571 146.363 100.577 145.466 100.834 145.044C101.106 144.622 101.486 136.258 101.486 136.258C101.974 133.647 97.5512 134.722 97.6462 132.124C97.9311 130.342 99.6812 130.927 99.844 129.866C99.8847 129.567 99.8168 129.159 99.5726 128.534C99.0028 127.704 102.042 123.148 102.096 122.89C102.15 122.618 101.879 122.264 101.743 121.815C101.635 121.489 101.404 120.197 101.377 120.034C101.201 118.823 106.858 119.571 108.296 117.477C108.879 116.634 110.941 112.622 113.248 109.167C113.722 108.446 114.062 107.603 114.17 106.638C116.612 104.992 116.042 101.606 118.267 99.9056C118.281 99.4024 118.254 97.5936 118.091 96.3016C117.996 95.5672 118.417 93.5136 118.647 93.364C120.112 92.3848 121.7 90.8344 123.504 90.2224C123.653 90.168 127.343 89.5695 128.917 88.0735C132.064 84.5239 131.44 69.6455 132.376 70.7879C133.706 70.312 134.669 66.8032 134.534 66.5992C136.297 66.3951 137.912 63.4439 137.966 60.6423C138.074 57.8407 136.433 56.8344 133.272 54.9439Z" fill="#006A75" fill-opacity="0.15"/>
</svg>
