<svg width="203" height="150" viewBox="0 0 203 150" fill="none" xmlns="http://www.w3.org/2000/svg">
<path d="M173.555 40.6393C172.568 40.1444 172.239 39.6494 171.91 39.4844C170.017 38.4944 169.77 37.5044 167.795 36.5969C166.972 36.1844 164.421 34.287 163.515 34.122C163.104 34.0395 162.61 35.6894 162.116 35.6069C161.129 35.5244 160.717 35.3594 160.059 35.4419C159.401 35.5244 158.166 36.1844 158.166 36.1844C158.331 36.5969 147.715 34.287 146.398 33.8745C145.986 33.792 136.276 31.317 135.37 31.317C134.465 31.317 134.63 29.2545 134.63 29.2545L134.054 28.0996L135.206 27.6046L135.041 27.1921L129.857 26.3671L126.894 26.5321V27.5221L127.799 29.0071C127.799 29.0071 127.717 32.3895 127.717 32.8845C127.552 32.967 117.512 32.472 117.348 32.2245C117.265 32.0595 117.019 29.667 116.936 29.667C116.36 29.4195 115.784 29.1721 115.208 29.0071C114.632 28.9246 112.739 28.5946 112.41 28.5946C112.081 28.5946 104.839 28.7596 104.098 28.6771C103.275 28.5946 98.0906 29.0071 96.4447 29.4195C95.6217 29.5845 95.7863 28.7596 96.527 28.3471C97.926 27.6046 99.4073 26.8621 100.889 26.1196C101.053 26.0371 101.3 25.9546 101.465 25.7896C101.958 25.4596 102.041 24.1396 101.547 23.8096C101.382 23.6446 99.0781 22.1597 97.3499 21.8297C95.7863 21.4997 93.8112 21.8297 93.482 21.7472C93.482 21.6647 89.7788 22.2422 89.2027 22.4072C88.9558 22.4897 78.8335 24.7996 78.0105 24.9646C77.1876 25.2121 76.2823 25.3771 75.7062 25.8721C75.2948 26.2846 71.7561 28.5121 69.9456 28.6771C69.4518 28.7596 69.2049 28.7596 68.8757 29.2545C68.4643 29.832 67.8059 30.4095 65.9131 31.3995C65.2547 31.3995 65.1724 30.7395 64.6787 30.327C63.1151 30.327 61.4692 30.327 60.5639 30.162C59.9878 30.0795 59.3295 30.162 58.8357 29.997C57.9305 29.7495 57.6013 30.2445 57.4367 30.987C57.2721 31.812 56.8606 32.472 56.12 32.802C55.297 33.132 55.6262 35.3594 55.5439 35.6069C54.8855 37.2569 52.0052 36.8444 51.9229 36.9269C50.8531 36.9269 40.6484 35.6894 30.8553 41.2168C29.5386 41.2168 29.374 40.6393 28.2218 39.8969C27.0697 39.1544 25.8353 38.4119 24.6008 38.6594C23.7779 38.9069 22.7903 39.0719 22.7903 41.4643C22.7081 47.0742 22.2143 58.294 25.8353 62.0065C32.5835 69.1013 35.7107 71.1638 35.8753 71.1638C37.5212 71.4113 36.9451 68.4414 38.2619 68.2764C39.5786 68.1114 41.636 70.5863 41.9652 71.4113C41.636 71.3288 41.3068 71.1638 41.0599 71.2463C40.7307 71.3288 39.9078 71.7413 39.7432 71.9888C39.6609 72.2363 39.1671 72.8138 39.2494 73.5563C39.3317 74.2987 40.237 74.9587 40.5661 75.0412C41.5537 75.3712 41.8006 76.4437 42.4589 77.0212C42.8704 77.5987 43.1173 78.5062 43.4465 79.0012C43.4465 79.0012 49.2071 79.6612 50.277 80.6511C50.7708 81.1461 50.8531 85.2711 51.8406 88.406C52.2521 89.726 53.6511 90.056 54.1449 90.9635C54.8855 92.2009 54.6386 93.7684 54.6386 93.7684C55.2147 95.3359 56.5314 96.6559 57.3544 97.1508C58.2596 97.7283 59.6587 97.0683 60.9754 97.1508C61.14 97.8108 61.3046 98.3883 61.3869 98.9658C61.6337 100.451 61.6337 102.101 62.1275 103.503C62.7859 105.566 63.8557 107.463 64.761 109.443C65.0079 110.021 65.1724 110.598 65.5016 111.093C65.5839 111.258 66.3246 111.341 66.4069 111.258C67.0652 110.186 68.7111 109.608 68.2997 107.958C68.2997 107.876 68.2997 107.793 68.382 107.711C68.6288 107.381 68.4643 105.978 69.2049 104.658C69.9456 103.256 71.6738 101.853 72.2498 101.441C73.1551 100.781 73.978 100.121 74.8833 99.4608C75.1302 99.2958 75.4594 98.9658 75.4594 98.7183C75.5417 97.6458 76.1177 97.6458 76.9407 97.8108C78.0105 97.9758 78.9981 97.3158 79.1627 96.5734C80.0679 96.4909 80.2325 97.0684 80.4794 97.7283C80.7263 98.3883 81.22 98.8833 81.6315 99.4608C81.8784 99.7908 82.3722 100.121 82.5368 100.533C82.7836 101.441 82.9482 102.431 83.1951 103.668C83.442 103.586 83.9358 103.586 84.3473 103.421C84.841 103.173 85.1702 102.843 85.7463 102.431C85.9932 103.338 86.2401 104.246 86.4869 105.236C86.6515 105.896 87.063 106.556 87.063 107.216C87.063 108.371 86.8984 109.443 86.7338 110.598C86.6515 111.011 86.7338 111.176 87.1453 111.506C87.886 112.248 88.6266 113.156 88.7912 114.063C89.1204 115.961 90.1902 117.28 91.8361 118.105C92.083 118.188 92.4122 118.105 92.4945 118.105C92.2476 116.951 92.1653 115.878 91.9184 114.888C91.8361 114.558 91.6715 114.228 91.4247 114.063C90.7663 113.568 90.0256 113.073 89.4496 112.578C89.2027 112.413 89.0381 112.083 88.9558 111.836C88.7089 111.341 88.6266 110.681 88.2974 110.433C87.5568 109.938 87.8037 109.443 87.9683 108.866C88.1328 108.206 88.3797 107.546 88.6266 106.886C88.7089 106.556 88.9558 106.308 89.1204 106.061C89.285 106.308 89.4496 106.556 89.6142 106.803C90.2725 107.051 91.0132 107.298 91.3424 107.793C91.7538 108.371 92.1653 108.948 92.906 109.196C93.1529 109.278 93.2352 109.773 93.3175 110.103C93.3997 110.351 93.3175 110.681 93.3997 111.093C93.8935 110.681 94.305 110.433 94.6342 110.103C94.4696 109.773 94.3873 109.526 94.2227 109.361C94.7988 109.278 95.4571 109.278 95.9509 109.113C96.6093 108.783 97.4322 108.371 97.5968 107.876C98.1729 106.308 97.8437 104.741 96.6916 103.503C96.0332 102.678 95.2925 101.936 94.5519 101.276C93.9758 100.698 94.0581 100.121 94.4696 99.7083C95.4571 98.6358 96.2801 97.3158 97.926 98.0583C98.1729 98.5533 98.3375 98.9658 98.5021 99.2958C98.5844 99.2133 98.6666 99.2133 98.8312 99.1308C98.7489 98.8833 98.7489 98.6358 98.6666 98.4708C99.6542 97.5633 101.3 98.1408 101.958 96.7383C102.123 96.8208 102.452 96.9858 102.699 96.9858C104.757 96.7383 106.156 95.4184 107.555 94.0159C107.719 93.8509 107.801 93.5209 107.966 93.2734C108.46 92.4484 109.036 91.7059 109.53 90.881C109.694 90.6335 109.859 90.386 109.941 90.056C110.023 89.891 110.188 88.9835 110.188 88.241C110.188 87.3335 109.859 86.591 109.859 86.5085C109.53 86.0135 109.2 85.5186 108.871 84.9411C108.46 84.3636 109.118 82.0536 109.859 81.4761C110.188 81.2286 110.517 80.9811 110.929 80.7336C110.353 80.5686 109.777 80.4036 109.2 80.2386C109.036 80.2386 108.789 80.3211 108.624 80.4036C107.637 81.0636 107.637 81.0636 107.308 79.9087C107.143 79.9087 107.39 78.5887 107.637 78.3412C108.295 77.8462 108.789 77.2687 109.447 76.7737C109.694 76.6087 110.188 76.7737 110.599 76.8562C109.777 78.2587 109.777 78.2587 110.023 78.8362C111.093 78.0112 112.163 77.4337 113.562 78.3412C113.562 78.5062 113.562 78.7537 113.48 78.9187C112.904 79.9911 113.315 80.3211 114.385 80.3211C114.55 80.3211 114.797 80.8161 114.879 81.0636C114.961 81.3111 114.797 81.6411 114.797 81.8886C114.797 82.1361 114.879 82.4661 114.797 82.7136C114.797 82.7961 114.879 83.2086 114.879 83.3736C114.797 83.7036 115.29 83.8686 115.619 83.7861C116.031 83.6211 116.442 83.5386 116.854 83.4561C117.595 83.2911 117.841 82.8786 117.759 82.1361C117.759 81.5586 117.595 80.9811 117.348 80.4861C117.101 79.9086 117.183 77.4337 117.512 77.1037C117.841 76.7737 118.088 76.4437 118.171 75.7837C118.171 75.5362 118.418 75.2887 118.664 75.0412C119.158 74.6287 119.652 74.2988 120.228 73.8863C121.545 74.5462 122.779 74.3812 123.684 73.2263C124.837 71.7413 126.071 70.2563 127.223 68.7714C127.47 68.5239 127.717 68.1939 127.881 67.9464C128.128 67.4514 128.54 67.0389 128.622 66.5439C128.787 65.6364 128.622 64.5639 129.034 63.9039C129.61 62.914 129.445 62.0065 129.527 61.0165C128.951 60.604 128.375 59.8615 127.799 59.779C127.305 59.6965 126.812 60.109 126.318 60.3565C126.153 60.439 125.413 57.5515 125.989 57.0566C126.153 56.9741 126.236 56.8091 126.4 56.7266C126.976 56.2316 127.552 55.5716 128.128 54.9941C128.458 54.6641 128.704 54.4166 129.034 54.0866C129.857 53.2616 130.762 52.7666 132.079 52.7666C133.231 52.7666 135.041 52.8491 136.276 52.8491C136.605 52.8491 138.662 53.5091 140.473 53.7566C141.954 53.9216 143.271 53.7566 143.188 53.7566C143.106 53.6741 143.188 51.5292 143.435 51.2817C144.011 50.8692 144.341 50.2092 144.752 49.6317C145.164 48.8892 145.74 48.8067 146.398 48.7242C147.056 48.6417 147.797 49.9617 148.62 50.4567C149.525 49.8792 151.006 50.1267 150.677 50.6217C150.43 50.7042 150.184 50.9517 150.019 51.1167C148.949 52.1066 149.196 51.9416 148.044 52.8491C147.385 53.3441 146.645 54.2516 146.069 54.9941C145.41 55.9016 144.917 56.5616 144.67 57.634C144.505 58.459 144.505 58.8715 144.752 60.109C144.917 60.8515 144.834 62.584 145.657 63.0789C145.74 63.0789 146.892 62.914 148.126 61.924C149.114 61.1815 150.184 60.3565 150.842 59.6965C152.159 58.459 151.583 57.964 151.583 57.0566C151.583 56.2316 151.5 55.4066 151.665 54.6641C152.323 52.7666 152.982 52.0241 153.393 51.5292C153.805 51.0342 154.792 51.0342 155.286 50.8692C155.78 50.7042 157.837 50.2917 158.084 50.1267C159.73 49.1367 160.388 49.1367 162.034 48.1467C162.857 47.6517 166.231 47.8167 166.725 47.8167C167.219 47.8167 168.947 47.9817 168.947 47.1567C168.947 46.3317 168.371 46.0018 168.124 45.7543C167.877 45.5068 166.396 44.8468 166.313 44.5993C166.231 44.3518 166.149 44.1868 166.313 44.1868C167.301 44.1043 168.124 43.6918 168.7 42.6193C168.947 42.2893 169.605 42.6193 170.346 42.7018C171.004 42.7843 171.91 43.6093 172.239 44.0218C173.062 45.0118 174.543 44.5168 175.119 44.6818C175.777 44.8468 176.6 44.1868 176.765 43.7743C176.518 43.8568 174.625 41.1343 173.555 40.6393Z" fill="white"/>

<path d="M122.203 85.3536C122.779 84.9411 124.425 84.6111 124.836 84.3636C125.412 83.9511 126.071 83.7861 126.894 83.7036C127.388 83.6211 128.457 82.7961 128.622 82.3012C129.116 80.5687 130.35 78.5887 129.774 77.1862C129.61 76.7738 128.622 76.5263 128.128 77.1037C127.964 77.2687 127.881 77.5987 127.881 78.0937C128.21 78.9187 127.141 80.4862 126.318 81.2287C125.742 81.7237 124.096 82.5487 123.273 82.8786C121.545 83.6211 119.158 83.5386 118.17 85.5186C118.088 85.6836 118.5 87.4161 118.582 87.5811C118.829 88.241 119.405 87.9111 119.734 87.2511C120.146 86.5086 121.298 86.0136 121.627 85.8486C121.791 85.6836 121.956 85.5186 122.203 85.3536Z" fill="white"/>

<path d="M130.844 68.5238C132.243 68.9363 132.078 60.5215 131.42 60.3565C130.761 60.1915 130.35 60.8515 130.185 61.264C129.198 63.7389 129.691 68.0289 130.844 68.5238Z" fill="white"/>

<path d="M128.868 74.0513C128.704 74.6288 128.704 75.3713 129.362 75.2888C130.843 75.0413 133.23 75.2063 133.065 73.1438C129.691 72.4838 130.103 70.4214 128.868 74.0513Z" fill="white"/>

<path d="M93.0704 121.075C90.8485 120.168 88.6265 119.013 86.816 114.888C86.4045 114.145 84.1003 113.98 84.7586 115.3C86.1576 117.445 87.8035 123.963 93.0704 125.53C94.1403 125.778 95.2924 121.983 93.0704 121.075Z" fill="white"/>

<path d="M105.991 128.17C105.003 127.675 100.395 125.53 98.0907 125.53C98.0907 125.53 96.0333 125.448 95.4572 125.778C94.8811 126.108 93.8113 127.428 97.7615 127.428C101.712 127.428 102.37 128.253 104.839 129.078C107.308 129.903 106.979 128.665 105.991 128.17Z" fill="white"/>

<path d="M119.158 128.665C118.5 128.253 117.595 127.758 114.714 127.758C112.657 127.84 112.575 128.418 110.846 128.418C109.201 128.418 109.201 129.738 111.011 129.738C112.822 129.738 113.48 129.078 115.126 129.078C116.772 129.078 117.019 129.243 118.582 129.655C120.063 130.068 119.817 129.078 119.158 128.665Z" fill="white"/>

<path d="M128.376 122.643C126.812 122.643 125.742 121.983 123.85 121.983C122.039 121.983 120.969 122.395 120.969 123.138C120.969 123.88 122.368 123.88 122.368 123.88C124.014 124.375 126.236 125.283 126.236 126.52C126.236 127.758 125.249 130.233 126.73 130.233C128.211 130.233 127.882 127.758 128.787 127.758C129.693 127.758 129.199 129.078 130.433 129.078C131.75 129.078 132.408 128.5 132.408 124.87C132.408 123.138 129.939 122.643 128.376 122.643Z" fill="white"/>

<path d="M103.522 115.713C102.699 116.786 101.63 117.281 100.231 117.281C98.8316 117.281 97.7617 118.188 97.7617 119.508C97.7617 120.828 98.667 123.138 101.218 123.138C103.769 123.138 104.592 122.89 105.662 119.508C106.732 116.126 106.897 113.733 105.909 113.651C104.592 113.733 104.345 114.641 103.522 115.713Z" fill="white"/>

<path d="M110.682 124.953C112.081 124.953 111.834 122.973 111.34 122.725C110.929 122.478 109.201 122.56 109.201 121.488C109.201 120.415 109.447 119.755 110.188 119.755C110.929 119.755 110.764 119.095 109.612 119.095C108.46 119.095 107.472 120.168 107.308 121.57C107.226 121.9 107.308 122.23 107.308 122.478C107.308 123.633 107.061 124.375 107.226 124.54C107.555 124.953 108.378 123.798 108.871 124.128C109.941 124.705 109.201 124.953 110.682 124.953Z" fill="white"/>

<path d="M111.752 103.008C111.752 101.688 111.011 101.276 110.023 101.276C109.036 101.276 108.789 101.936 108.789 102.843C108.789 105.731 111.587 107.793 111.587 111.671C111.587 112.991 110.188 113.156 110.188 114.558C110.188 115.96 111.176 117.28 112.328 115.053C113.398 112.826 113.562 114.228 113.562 111.753C113.562 109.278 111.422 106.473 110.6 105.071C109.941 104.163 111.834 104.246 111.752 103.008Z" fill="white"/>

<path d="M107.802 108.948C107.802 108.948 106.156 110.351 105.991 110.846C105.827 111.341 106.485 111.753 107.226 111.341C107.966 110.928 108.46 110.351 108.872 109.856C109.119 109.361 108.46 108.618 107.802 108.948Z" fill="white"/>

<path d="M114.632 115.053C113.973 115.136 113.891 115.053 113.809 115.383C113.644 115.961 113.644 116.786 114.056 116.786C114.467 116.786 114.961 116.868 115.043 116.208C115.126 115.548 115.29 114.971 114.632 115.053Z" fill="white"/>

<path d="M119.076 117.775C118.088 118.353 118.17 118.93 118.582 119.095C118.993 119.26 119.981 118.93 120.063 118.435C120.145 117.94 119.487 117.445 119.076 117.775Z" fill="white"/>

<path d="M116.442 119.425C116.442 118.93 116.277 118.435 115.454 118.518C114.549 118.6 114.467 119.343 114.467 119.343C114.549 120.085 114.878 120.003 115.372 120.003C115.866 119.92 116.442 119.92 116.442 119.425Z" fill="white"/>

<path d="M114.715 123.055C114.221 123.88 114.303 124.375 114.632 124.54C114.879 124.705 115.537 124.54 115.784 123.88C116.031 123.22 116.196 122.973 115.784 122.725C115.373 122.478 115.126 122.478 114.715 123.055Z" fill="white"/>

<path d="M116.854 122.973C116.607 123.385 116.772 124.045 117.101 124.128C117.513 124.21 118.006 124.705 118.336 124.458C118.747 124.128 118.665 124.045 118.171 123.55C117.677 122.973 117.101 122.56 116.854 122.973Z" fill="white"/>

<path d="M119.158 121.735C119.158 121.323 118.911 121.323 118.253 121.24C117.43 121.24 117.265 121.488 117.265 121.735C117.265 121.983 118.006 122.23 118.417 122.23C118.746 122.23 119.158 122.148 119.158 121.735Z" fill="white"/>

<path d="M113.151 120.333C112.657 120.498 112.986 120.25 112.657 120.498C112.41 120.828 112.245 121.57 112.492 121.735C112.739 121.9 113.727 121.735 113.809 121.075C113.974 120.498 113.644 120.085 113.151 120.333Z" fill="white"/>

</svg>
