<svg width="203" height="150" viewBox="0 0 203 150" fill="none" xmlns="http://www.w3.org/2000/svg">
<path d="M54.0889 65.0019C54.2051 63.219 54.4191 59.9362 51.6206 55.1535C52.9225 54.3307 53.4886 50.9544 53.5169 49.5925C53.6527 49.3121 53.8315 48.7015 54.048 47.9618C54.5982 46.0817 55.3925 43.3679 56.3471 43.1236L55.1867 39.4068C56.6585 38.2151 57.9321 36.7682 57.3943 34.7821C58.5547 35.5198 60.9605 35.0942 62.0643 34.47C62.8001 34.8672 65.0077 35.3495 65.8285 35.4063C67.7814 34.2146 71.9135 33.0797 74.2061 33.1081C74.6306 34.0728 75.4514 33.3918 75.9325 32.8528L79.81 33.0514C80.3477 34.1863 81.1968 34.1863 82.1025 33.3635C81.9327 32.3137 81.0553 31.0085 80.1213 30.4695C80.7102 29.5158 79.6857 27.4535 79.0065 26.0862C78.837 25.745 78.689 25.4472 78.593 25.2206C79.5269 25.2206 80.3477 25.2206 80.3194 24.0005C81.6213 25.6178 84.2252 27.7741 86.4894 27.1499C86.6168 27.0552 86.8332 26.8675 87.1043 26.6323C88.4587 25.4571 91.1781 23.0977 90.9895 25.2489C91.6121 25.9015 91.697 26.6959 90.8197 27.1499C93.9329 29.8453 97.4708 29.4764 101.094 28.0294L103.811 30.9802C104.713 30.7487 106.27 31.6568 107.418 32.3265C107.818 32.5596 108.168 32.7639 108.424 32.8811C110.52 32.9097 111.287 33.0607 111.814 32.7719C112.334 32.4874 112.621 31.7761 113.716 30.1006C117.4 28.9248 120.849 30.6533 124.098 32.2811C124.769 32.6171 125.431 32.9489 126.085 33.25C127.322 33.4034 128.093 33.9197 128.845 34.4226C129.761 35.0357 130.647 35.6289 132.311 35.5198C133.047 37.9882 133.104 42.6412 132.113 45.0245C132.481 47.1241 133.613 52.2595 134.264 54.3307C138.875 54.4022 137.578 56.6942 136.223 59.0902C135.964 59.5476 135.703 60.0089 135.481 60.4591C136.698 62.6154 139.698 65.8499 142.132 66.6443C142.178 69.9168 142.895 70.0904 143.475 70.2308C143.961 70.3486 144.351 70.4431 144.17 72.3188C139.331 73.1451 139.605 74.7374 139.812 75.9334C140.101 77.6121 140.256 78.5098 125.943 75.4114C124.363 69.4576 123.032 70.1156 120.868 71.1854C118.535 72.3383 115.235 73.9696 109.613 68.3183C107.154 68.8257 105.968 66.1851 105.076 64.1987C104.921 63.8524 104.774 63.526 104.631 63.2396C104.299 62.7616 103.87 62.1965 103.427 61.6109C102.738 60.7017 102.011 59.7431 101.546 58.9838C100.018 59.8633 99.735 59.381 99.1972 57.8773C97.7078 57.6069 97.7387 58.0841 97.7731 58.6146C97.8145 59.2535 97.8609 59.9697 95.2632 59.5512C95.2806 59.7607 95.1131 60.1637 94.9281 60.6087C94.5119 61.6102 94.007 62.825 95.3198 62.5303C96.3283 65.3876 98.7805 68.2108 100.94 70.6967C101.568 71.4197 102.171 72.1143 102.707 72.7728C102.369 74.6065 103.679 76.5102 104.861 78.2282C105.362 78.9557 105.84 79.65 106.16 80.2915C105.763 78.7877 105.367 75.3831 106.471 74.1347C108.396 75.1277 108.311 78.3905 107.405 80.0645C108.565 82.6188 112.505 81.9833 115.3 81.5325C115.982 81.4225 116.596 81.3235 117.084 81.2845C117.089 81.2774 117.094 81.2703 117.1 81.2632L117.056 81.2561C117.392 80.7876 117.758 80.2567 118.148 79.6913C119.27 78.0654 120.588 76.1537 121.953 74.617C123.226 79.1849 124.783 82.3059 130.698 83.4975L129.584 83.3144C129.936 83.396 130.307 83.4756 130.698 83.5543C130.759 83.63 130.829 83.7166 130.905 83.8122C131.893 85.0431 134.081 87.7718 135.368 88.0088C134.137 90.8075 132.796 92.0057 131.695 92.9903C130.06 94.4511 128.951 95.4418 129.509 100.493C126.821 100.72 125.575 101.542 125.122 104.38C122.505 104.16 122.356 104.778 122.127 105.728C121.972 106.371 121.78 107.165 120.764 107.955C116.135 107.475 114.787 109.281 113.417 111.114C112.275 112.644 111.117 114.194 108.028 114.452C101.716 118.708 92.8574 122.112 85.5554 123.957C83.947 121.699 83.3206 118.465 82.6967 115.244C82.113 112.23 81.5314 109.227 80.1496 107.047C78.225 103.926 72.5928 95.3856 69.6776 93.2861C69.6776 90.3637 68.0361 85.0581 66.5361 82.5329C63.8473 81.7952 62.319 80.0078 62.4888 77.1705L54.9603 66.5592C53.9761 66.7313 54.01 66.2122 54.0889 65.0019Z" fill="white"/>

</svg>
