<svg width="203" height="170" viewBox="0 0 203 170" fill="none" xmlns="http://www.w3.org/2000/svg">
<path d="M119.86 74.0598C115.705 69.9819 113.955 67.6579 113.955 62.7469C113.955 57.8359 110.194 56.5204 110.194 56.5204L106.344 46.83C106.344 46.83 103.414 51.3025 103.326 57.5289C103.195 63.7554 100.658 66.8248 100.658 66.8248C100.658 66.8248 98.6461 67.2194 96.5903 65.9917C94.5345 64.7639 87.9297 61.9138 87.1424 58.7567C86.3114 55.5996 88.7608 52.8372 90.3792 51.1271C82.7684 49.8116 73.2767 51.5217 71.877 53.8895C70.4336 56.2135 70.04 57.9674 70.04 59.4144C66.6719 59.9406 66.6719 59.9406 66.6719 59.9406C66.6719 59.9406 65.0536 56.1697 63.2165 56.1697C61.3794 56.1697 53.9435 63.0977 52.0189 65.1586C50.0944 67.1756 50.5755 69.3242 51.0129 71.9989C47.2512 74.7613 43.8832 76.603 39.9466 78.2254C35.9662 79.8477 34.3478 79.9793 32.3358 82.8294C30.3237 85.6796 30.3237 87.1266 30.3237 87.1266C30.3237 90.8098 32.467 97.5186 35.6163 103.131C43.8395 112.602 37.4534 116.066 41.6087 118.741C45.7641 121.416 48.6072 116.198 49.8319 115.496C51.0566 114.795 53.5936 114.576 56.218 114.576C58.8424 114.576 58.1426 114.795 60.592 111.725C63.0415 108.656 70.2587 106.42 75.6387 106.639C81.0188 106.858 84.693 110.191 87.6236 115.716C90.1605 111.55 92.5225 110.015 92.5225 110.015C92.5225 110.015 93.9659 118.566 96.1967 122.337C98.4274 126.108 103.633 126.941 108.313 127.029C112.993 127.116 116.055 126.809 123.141 115.803C130.27 104.797 130.883 107.867 130.883 96.1155C130.883 84.3641 122.485 75.9014 119.86 74.0598Z" fill="white"/>

<path d="M110.456 133.737C108.269 133.518 108.356 133.036 107.263 132.948C106.126 132.86 106.388 133.913 106.388 133.913C106.563 135.842 107.263 140.271 109.931 140.315C112.599 140.358 113.868 136.544 113.868 134.702C113.868 132.86 112.687 134 110.456 133.737Z" fill="white"/>

<path d="M153.146 142.156C149.254 145.927 147.154 144.612 145.229 144.919C143.305 145.269 142.386 146.322 142.124 148.339C141.861 150.356 142.474 151.057 146.41 151.408C150.347 151.759 149.953 148.865 154.109 145.883C156.34 144.261 158.395 142.244 158.964 141.016C159.445 139.964 158.133 139.131 157.914 138.692C157.433 137.728 157.039 138.385 153.146 142.156Z" fill="white"/>

<path d="M170.249 133.43C169.812 133.08 168.718 133.65 168.15 133.255C166.706 132.247 167.056 128.695 166.838 126.853C166.619 125.012 166.007 122.688 165.832 121.679C165.613 120.671 164.957 120.846 164.607 121.679C164.257 122.512 164.213 125.012 164.826 126.195C165.438 127.336 165.525 130.756 165.525 132.29C165.525 133.825 163.295 133.694 162.332 135.009C161.37 136.324 162.332 137.201 162.332 138.341C162.332 139.482 160.714 140.885 161.326 141.718C161.326 141.718 161.939 141.981 162.945 141.718C163.951 141.455 166.269 138.254 169.068 136.588C170.774 135.491 170.993 134 170.249 133.43Z" fill="white"/>

<path d="M74.808 21.9241C76.2952 21.8803 77.5199 21.2664 78.3947 22.538C79.2695 23.8096 77.345 24.8181 77.345 25.6074C77.345 26.3528 78.3072 28.326 80.2756 27.8875C82.2439 27.449 83.4686 27.9313 85.6556 29.2029C87.8426 30.4745 90.5983 29.9484 92.3479 31.2638C94.0975 32.5793 95.4972 33.807 95.8909 35.6048C96.2845 37.4026 93.7913 37.578 92.9165 38.2795C92.0417 38.9811 92.7416 40.5597 94.01 40.6035C95.2785 40.6473 96.4157 39.2881 98.0779 39.2881C99.7838 39.2881 101.621 41.042 104.333 42.5767C107.045 44.1114 108.138 42.3574 108.138 40.735C108.138 39.1127 111.113 37.9726 113.518 38.9811C115.924 40.0335 117.149 40.8227 118.461 42.7521C119.773 44.6375 121.741 46.6546 124.978 47.4C128.259 48.1016 128.74 47.6192 127.384 46.4792C126.028 45.3391 119.817 39.0688 119.511 38.1041C119.204 37.1395 121.523 37.1395 121.479 36.131C121.435 35.1663 119.686 34.7717 117.499 34.6401C115.312 34.5524 113.956 29.0714 110.588 27.9752C107.22 26.879 96.4158 21.4418 94.3162 21.4418C92.2604 21.4418 91.1669 22.5818 89.636 23.9411C88.1051 25.3004 86.2242 26.002 85.1745 25.5197C84.1247 25.0373 82.6813 23.108 82.6375 21.4856C82.5938 19.8632 81.544 18.8109 79.532 18.5916C77.5199 18.3724 75.5516 19.2055 74.4144 19.5563C72.8397 20.1263 73.3208 21.968 74.808 21.9241Z" fill="white"/>

</svg>
