<svg width="25" height="25" viewBox="0 0 25 25" fill="none" xmlns="http://www.w3.org/2000/svg">
<path fill-rule="evenodd" clip-rule="evenodd" d="M12.5011 0.875C12.7663 0.875 13.0207 0.980357 13.2082 1.16789L23.989 11.9487C25.4379 13.3976 24.4117 15.875 22.3626 15.875H22.0011V22.125C22.0011 23.2296 21.1057 24.125 20.0011 24.125H15.5011C14.3965 24.125 13.5011 23.2296 13.5011 22.125V17.625H11.5011V22.125C11.5011 23.2296 10.6057 24.125 9.50109 24.125H5.00109C3.89652 24.125 3.00109 23.2296 3.00109 22.125V15.875H2.63957C0.59049 15.875 -0.435693 13.3976 1.01323 11.9487L11.794 1.16789C11.9815 0.980357 12.2359 0.875 12.5011 0.875ZM12.5011 3.28921L2.42744 13.3629C2.23845 13.5519 2.3723 13.875 2.63957 13.875H4.00109C4.55338 13.875 5.00109 14.3227 5.00109 14.875V22.125H9.50109V17.625C9.50109 16.5204 10.3965 15.625 11.5011 15.625H13.5011C14.6057 15.625 15.5011 16.5204 15.5011 17.625V22.125H20.0011V14.875C20.0011 14.3227 20.4488 13.875 21.0011 13.875H22.3626C22.6299 13.875 22.7637 13.5519 22.5747 13.3629L12.5011 3.28921Z" fill="#4F4F4F" fill-opacity="0.5"/>
<path fill-rule="evenodd" clip-rule="evenodd" d="M12.5011 0.875C12.7663 0.875 13.0207 0.980357 13.2082 1.16789L23.989 11.9487C25.4379 13.3976 24.4117 15.875 22.3626 15.875H22.0011V22.125C22.0011 23.2296 21.1057 24.125 20.0011 24.125H15.5011C14.3965 24.125 13.5011 23.2296 13.5011 22.125V17.625H11.5011V22.125C11.5011 23.2296 10.6057 24.125 9.50109 24.125H5.00109C3.89652 24.125 3.00109 23.2296 3.00109 22.125V15.875H2.63957C0.59049 15.875 -0.435693 13.3976 1.01323 11.9487L11.794 1.16789C11.9815 0.980357 12.2359 0.875 12.5011 0.875ZM12.5011 3.28921L2.42744 13.3629C2.23845 13.5519 2.3723 13.875 2.63957 13.875H4.00109C4.55338 13.875 5.00109 14.3227 5.00109 14.875V22.125H9.50109V17.625C9.50109 16.5204 10.3965 15.625 11.5011 15.625H13.5011C14.6057 15.625 15.5011 16.5204 15.5011 17.625V22.125H20.0011V14.875C20.0011 14.3227 20.4488 13.875 21.0011 13.875H22.3626C22.6299 13.875 22.7637 13.5519 22.5747 13.3629L12.5011 3.28921Z" fill="#006A75" fill-opacity="0.15"/>
</svg>
