<svg width="14" height="14" viewBox="0 0 14 14" fill="none" xmlns="http://www.w3.org/2000/svg">
<path fill-rule="evenodd" clip-rule="evenodd" d="M6.27024 2.8335C6.04822 3.69611 5.26517 4.3335 4.33325 4.3335C3.40133 4.3335 2.61828 3.69611 2.39626 2.8335H0.833252C0.55711 2.8335 0.333252 2.60964 0.333252 2.3335C0.333252 2.05735 0.55711 1.8335 0.833252 1.8335H2.39626C2.61828 0.970882 3.40133 0.333496 4.33325 0.333496C5.26517 0.333496 6.04822 0.970882 6.27024 1.8335H13.1666C13.4427 1.8335 13.6666 2.05735 13.6666 2.3335C13.6666 2.60964 13.4427 2.8335 13.1666 2.8335H6.27024ZM5.33325 2.3335C5.33325 2.88578 4.88554 3.3335 4.33325 3.3335C3.78097 3.3335 3.33325 2.88578 3.33325 2.3335C3.33325 1.78121 3.78097 1.3335 4.33325 1.3335C4.88554 1.3335 5.33325 1.78121 5.33325 2.3335Z" fill="#333333"/>
<path fill-rule="evenodd" clip-rule="evenodd" d="M11.6036 7.50016C11.3816 8.36278 10.5985 9.00016 9.66658 9.00016C8.73466 9.00016 7.95161 8.36278 7.72959 7.50016H0.833252C0.55711 7.50016 0.333252 7.2763 0.333252 7.00016C0.333252 6.72402 0.55711 6.50016 0.833252 6.50016H7.72959C7.95161 5.63755 8.73466 5.00016 9.66658 5.00016C10.5985 5.00016 11.3816 5.63755 11.6036 6.50016H13.1666C13.4427 6.50016 13.6666 6.72402 13.6666 7.00016C13.6666 7.2763 13.4427 7.50016 13.1666 7.50016H11.6036ZM10.6666 7.00016C10.6666 7.55245 10.2189 8.00016 9.66658 8.00016C9.1143 8.00016 8.66658 7.55245 8.66658 7.00016C8.66658 6.44788 9.1143 6.00016 9.66658 6.00016C10.2189 6.00016 10.6666 6.44788 10.6666 7.00016Z" fill="#333333"/>
<path fill-rule="evenodd" clip-rule="evenodd" d="M4.33325 13.6668C5.26517 13.6668 6.04822 13.0294 6.27024 12.1668H13.1666C13.4427 12.1668 13.6666 11.943 13.6666 11.6668C13.6666 11.3907 13.4427 11.1668 13.1666 11.1668H6.27024C6.04822 10.3042 5.26517 9.66683 4.33325 9.66683C3.40133 9.66683 2.61828 10.3042 2.39626 11.1668H0.833252C0.55711 11.1668 0.333252 11.3907 0.333252 11.6668C0.333252 11.943 0.55711 12.1668 0.833252 12.1668H2.39626C2.61828 13.0294 3.40133 13.6668 4.33325 13.6668ZM4.33325 12.6668C4.88554 12.6668 5.33325 12.2191 5.33325 11.6668C5.33325 11.1145 4.88554 10.6668 4.33325 10.6668C3.78097 10.6668 3.33325 11.1145 3.33325 11.6668C3.33325 12.2191 3.78097 12.6668 4.33325 12.6668Z" fill="#333333"/>
</svg>
