<svg width="23" height="23" viewBox="0 0 23 23" fill="none" xmlns="http://www.w3.org/2000/svg">
<path fill-rule="evenodd" clip-rule="evenodd" d="M0.5 11.5C0.5 5.425 5.425 0.5 11.5 0.5C17.575 0.5 22.5 5.425 22.5 11.5C22.5 17.575 17.575 22.5 11.5 22.5C5.425 22.5 0.5 17.575 0.5 11.5ZM4.408 17.042C3.213 15.514 2.5 13.59 2.5 11.5C2.50018 10.071 2.84065 8.66252 3.49323 7.3912C4.14581 6.11987 5.09175 5.02222 6.25277 4.18905C7.41379 3.35589 8.75652 2.81117 10.1699 2.59997C11.5832 2.38877 13.0265 2.51716 14.3804 2.97451C15.7343 3.43186 16.9598 4.20503 17.9555 5.23004C18.9512 6.25505 19.6886 7.50243 20.1065 8.86898C20.5244 10.2355 20.611 11.682 20.3589 13.0886C20.1068 14.4952 19.5234 15.8216 18.657 16.958C17.816 15.8799 16.7399 15.008 15.5109 14.4088C14.2819 13.8095 12.9323 13.4987 11.565 13.5C10.1797 13.4988 8.81297 13.8179 7.57143 14.4323C6.3299 15.0467 5.24723 15.9399 4.408 17.042ZM5.828 18.488C7.43027 19.7923 9.43395 20.5031 11.5 20.5C13.6026 20.5029 15.6393 19.7667 17.254 18.42C16.6064 17.5159 15.7524 16.7793 14.7629 16.2714C13.7735 15.7636 12.6772 15.4991 11.565 15.5C10.4388 15.4992 9.32905 15.7705 8.33019 16.2907C7.33134 16.8109 6.47293 17.5647 5.828 18.488ZM14.3284 11.3284C15.0786 10.5783 15.5 9.56087 15.5 8.5C15.5 7.43913 15.0786 6.42172 14.3284 5.67157C13.5783 4.92143 12.5609 4.5 11.5 4.5C10.4391 4.5 9.42172 4.92143 8.67157 5.67157C7.92143 6.42172 7.5 7.43913 7.5 8.5C7.5 9.56087 7.92143 10.5783 8.67157 11.3284C9.42172 12.0786 10.4391 12.5 11.5 12.5C12.5609 12.5 13.5783 12.0786 14.3284 11.3284ZM12.9142 9.91421C13.2893 9.53914 13.5 9.03043 13.5 8.5C13.5 7.96957 13.2893 7.46086 12.9142 7.08579C12.5391 6.71071 12.0304 6.5 11.5 6.5C10.9696 6.5 10.4609 6.71071 10.0858 7.08579C9.71071 7.46086 9.5 7.96957 9.5 8.5C9.5 9.03043 9.71071 9.53914 10.0858 9.91421C10.4609 10.2893 10.9696 10.5 11.5 10.5C12.0304 10.5 12.5391 10.2893 12.9142 9.91421Z" fill="#4F4F4F" fill-opacity="0.5"/>
<path fill-rule="evenodd" clip-rule="evenodd" d="M0.5 11.5C0.5 5.425 5.425 0.5 11.5 0.5C17.575 0.5 22.5 5.425 22.5 11.5C22.5 17.575 17.575 22.5 11.5 22.5C5.425 22.5 0.5 17.575 0.5 11.5ZM4.408 17.042C3.213 15.514 2.5 13.59 2.5 11.5C2.50018 10.071 2.84065 8.66252 3.49323 7.3912C4.14581 6.11987 5.09175 5.02222 6.25277 4.18905C7.41379 3.35589 8.75652 2.81117 10.1699 2.59997C11.5832 2.38877 13.0265 2.51716 14.3804 2.97451C15.7343 3.43186 16.9598 4.20503 17.9555 5.23004C18.9512 6.25505 19.6886 7.50243 20.1065 8.86898C20.5244 10.2355 20.611 11.682 20.3589 13.0886C20.1068 14.4952 19.5234 15.8216 18.657 16.958C17.816 15.8799 16.7399 15.008 15.5109 14.4088C14.2819 13.8095 12.9323 13.4987 11.565 13.5C10.1797 13.4988 8.81297 13.8179 7.57143 14.4323C6.3299 15.0467 5.24723 15.9399 4.408 17.042ZM5.828 18.488C7.43027 19.7923 9.43395 20.5031 11.5 20.5C13.6026 20.5029 15.6393 19.7667 17.254 18.42C16.6064 17.5159 15.7524 16.7793 14.7629 16.2714C13.7735 15.7636 12.6772 15.4991 11.565 15.5C10.4388 15.4992 9.32905 15.7705 8.33019 16.2907C7.33134 16.8109 6.47293 17.5647 5.828 18.488ZM14.3284 11.3284C15.0786 10.5783 15.5 9.56087 15.5 8.5C15.5 7.43913 15.0786 6.42172 14.3284 5.67157C13.5783 4.92143 12.5609 4.5 11.5 4.5C10.4391 4.5 9.42172 4.92143 8.67157 5.67157C7.92143 6.42172 7.5 7.43913 7.5 8.5C7.5 9.56087 7.92143 10.5783 8.67157 11.3284C9.42172 12.0786 10.4391 12.5 11.5 12.5C12.5609 12.5 13.5783 12.0786 14.3284 11.3284ZM12.9142 9.91421C13.2893 9.53914 13.5 9.03043 13.5 8.5C13.5 7.96957 13.2893 7.46086 12.9142 7.08579C12.5391 6.71071 12.0304 6.5 11.5 6.5C10.9696 6.5 10.4609 6.71071 10.0858 7.08579C9.71071 7.46086 9.5 7.96957 9.5 8.5C9.5 9.03043 9.71071 9.53914 10.0858 9.91421C10.4609 10.2893 10.9696 10.5 11.5 10.5C12.0304 10.5 12.5391 10.2893 12.9142 9.91421Z" fill="#006A75" fill-opacity="0.15"/>
</svg>
