<svg width="201" height="151" viewBox="0 0 201 151" fill="none" xmlns="http://www.w3.org/2000/svg">
<path d="M136.776 96.5104C135.135 95.3736 134.522 92.507 135.115 90.7969C135.817 89.848 132.98 87.6337 135.659 87.4163C136.519 87.5843 136.163 86.2103 135.669 86.2202C134.987 86.1115 135.876 85.4986 135.817 85.0043C139.484 78.3419 167.132 52.0975 144.002 59.3827C141.175 60.5787 142.262 57.9988 140.226 57.8208C143.053 53.6395 133.553 52.74 133.771 46.4334C130.756 43.9523 131.903 43.6953 130.706 39.7908C129.184 36.7265 128.67 39.1186 128.403 35.5996C127.415 33.9686 125.833 31.5962 125.28 29.7477C122.976 27.7015 123.53 26.4461 122.759 24.5581C122.502 23.7476 121.869 23.1841 122.502 23.2632C118.884 21.5729 119.734 25.7147 113.21 22.7591C112.736 22.7887 112.746 23.5301 112.232 22.6108C112.113 21.4642 108.703 22.4131 108.979 21.4839C109.059 20.7821 108.09 20.8711 107.793 20.3867C107.24 19.4279 106.399 20.8315 105.569 20.9304C103.167 21.3258 105.935 23.6388 104.086 24.5384C103.019 25.4082 101.724 23.3719 100.903 23.6981C97.7403 23.9057 98.2642 20.8809 96.1488 20.8612C94.9033 20.8612 95.2098 20.1 94.0236 19.9814C93.1339 19.7442 91.8489 20.0308 91.4634 19.2895C91.1174 18.6074 90.9296 19.3488 90.465 18.8941C88.2014 17.0061 93.0252 17.8463 90.5935 14.4755C90.3662 14.0406 91.671 13.0224 91.0482 12.9236C89.7928 14.179 89.5754 11.085 88.0333 12.7654C86.9658 14.1098 85.0876 12.2218 84.0892 13.0719C82.8734 14.0505 81.3116 12.9236 79.3346 13.1411C79.0183 14.1197 75.7661 13.5958 75.7068 14.4755C75.5882 14.9599 75.4795 15.0192 74.9062 14.95C73.4234 14.4953 72.514 16.7491 71.14 16.0275C70.4777 15.6716 68.9357 16.3537 68.2042 16.1461C67.5419 15.8001 66.4842 13.833 66.2173 15.81C64.359 21.5927 59.6537 17.2927 60.4445 24.0441C61.4429 27.1282 56.9354 28.0178 55.4922 29.3029C54.4642 31.9916 47.5941 39.5437 49.927 41.748C50.8759 42.5487 50.2433 43.4284 49.9171 44.1896C51.8545 45.9688 49.7787 47.8766 49.9171 50.4368C46.8034 51.969 50.1445 52.6708 49.2647 55.0234C48.7507 56.9707 51.1428 56.2788 51.301 57.7516C51.39 58.7797 52.0226 58.1866 52.3784 59.3036C52.7936 60.5688 52.932 60.213 53.8908 61.0236C54.4246 61.5573 54.4246 61.5672 54.3159 61.9132C53.881 63.1884 56.0161 64.4635 56.6487 65.2938C65.0015 74.5955 63.064 65.9166 71.5156 69.2676C84.1683 62.19 80.4516 71.2446 86.9262 69.663C91.4733 70.2561 89.0712 76.2265 88.5473 79.1525C88.7351 82.3947 93.2921 85.7161 93.4107 88.385C92.8374 89.0769 94.2213 90.3224 94.3992 91.4197C95.5261 93.3867 93.6875 93.1989 94.8144 95.2155C96.7123 98.0821 94.4981 98.1414 93.7765 100.534C91.1372 106.791 92.7682 110.982 95.6348 116.082C97.4635 119.542 95.704 124.929 98.6497 127.885C99.6876 128.34 99.3219 131.147 100.182 131.74C100.973 132.531 102.198 134.805 100.498 135.131C100.142 135.753 101.645 136.752 101.111 137.187C102.653 139.787 106.172 137.266 108.92 137.424C115.286 138.254 119.428 131.542 122.522 127.677C124.064 118.099 128.443 124.267 127.86 116.804C128.028 115.371 125.813 113.137 127.761 112.563C129.362 112.306 128.463 111.654 129.767 110.755C131.052 108.422 134.562 108.273 135.323 105.881C135.412 105.041 137.418 103.835 136.904 102.985C136.45 100.148 137.656 97.0738 136.776 96.5104Z" fill="#4F4F4F" fill-opacity="0.5"/>
<path d="M149.271 99.5154C148.935 99.7922 148.915 99.9503 149.004 100.099C150.141 101.216 147.155 101.868 147.234 103.301C147.323 103.835 146.187 103.252 146.246 103.855C145.613 105.377 142.727 105.565 141.818 106.89C139.475 109.904 142.322 110.577 141.452 113.206C138.536 115.924 139.415 125.572 144.902 121.608C146.503 116.972 155.053 100.702 149.271 99.5154Z" fill="#4F4F4F" fill-opacity="0.5"/>
<path d="M136.776 96.5104C135.135 95.3736 134.522 92.507 135.115 90.7969C135.817 89.848 132.98 87.6337 135.659 87.4163C136.519 87.5843 136.163 86.2103 135.669 86.2202C134.987 86.1115 135.876 85.4986 135.817 85.0043C139.484 78.3419 167.132 52.0975 144.002 59.3827C141.175 60.5787 142.262 57.9988 140.226 57.8208C143.053 53.6395 133.553 52.74 133.771 46.4334C130.756 43.9523 131.903 43.6953 130.706 39.7908C129.184 36.7265 128.67 39.1186 128.403 35.5996C127.415 33.9686 125.833 31.5962 125.28 29.7477C122.976 27.7015 123.53 26.4461 122.759 24.5581C122.502 23.7476 121.869 23.1841 122.502 23.2632C118.884 21.5729 119.734 25.7147 113.21 22.7591C112.736 22.7887 112.746 23.5301 112.232 22.6108C112.113 21.4642 108.703 22.4131 108.979 21.4839C109.059 20.7821 108.09 20.8711 107.793 20.3867C107.24 19.4279 106.399 20.8315 105.569 20.9304C103.167 21.3258 105.935 23.6388 104.086 24.5384C103.019 25.4082 101.724 23.3719 100.903 23.6981C97.7403 23.9057 98.2642 20.8809 96.1488 20.8612C94.9033 20.8612 95.2098 20.1 94.0236 19.9814C93.1339 19.7442 91.8489 20.0308 91.4634 19.2895C91.1174 18.6074 90.9296 19.3488 90.465 18.8941C88.2014 17.0061 93.0252 17.8463 90.5935 14.4755C90.3662 14.0406 91.671 13.0224 91.0482 12.9236C89.7928 14.179 89.5754 11.085 88.0333 12.7654C86.9658 14.1098 85.0876 12.2218 84.0892 13.0719C82.8734 14.0505 81.3116 12.9236 79.3346 13.1411C79.0183 14.1197 75.7661 13.5958 75.7068 14.4755C75.5882 14.9599 75.4795 15.0192 74.9062 14.95C73.4234 14.4953 72.514 16.7491 71.14 16.0275C70.4777 15.6716 68.9357 16.3537 68.2042 16.1461C67.5419 15.8001 66.4842 13.833 66.2173 15.81C64.359 21.5927 59.6537 17.2927 60.4445 24.0441C61.4429 27.1282 56.9354 28.0178 55.4922 29.3029C54.4642 31.9916 47.5941 39.5437 49.927 41.748C50.8759 42.5487 50.2433 43.4284 49.9171 44.1896C51.8545 45.9688 49.7787 47.8766 49.9171 50.4368C46.8034 51.969 50.1445 52.6708 49.2647 55.0234C48.7507 56.9707 51.1428 56.2788 51.301 57.7516C51.39 58.7797 52.0226 58.1866 52.3784 59.3036C52.7936 60.5688 52.932 60.213 53.8908 61.0236C54.4246 61.5573 54.4246 61.5672 54.3159 61.9132C53.881 63.1884 56.0161 64.4635 56.6487 65.2938C65.0015 74.5955 63.064 65.9166 71.5156 69.2676C84.1683 62.19 80.4516 71.2446 86.9262 69.663C91.4733 70.2561 89.0712 76.2265 88.5473 79.1525C88.7351 82.3947 93.2921 85.7161 93.4107 88.385C92.8374 89.0769 94.2213 90.3224 94.3992 91.4197C95.5261 93.3867 93.6875 93.1989 94.8144 95.2155C96.7123 98.0821 94.4981 98.1414 93.7765 100.534C91.1372 106.791 92.7682 110.982 95.6348 116.082C97.4635 119.542 95.704 124.929 98.6497 127.885C99.6876 128.34 99.3219 131.147 100.182 131.74C100.973 132.531 102.198 134.805 100.498 135.131C100.142 135.753 101.645 136.752 101.111 137.187C102.653 139.787 106.172 137.266 108.92 137.424C115.286 138.254 119.428 131.542 122.522 127.677C124.064 118.099 128.443 124.267 127.86 116.804C128.028 115.371 125.813 113.137 127.761 112.563C129.362 112.306 128.463 111.654 129.767 110.755C131.052 108.422 134.562 108.273 135.323 105.881C135.412 105.041 137.418 103.835 136.904 102.985C136.45 100.148 137.656 97.0738 136.776 96.5104Z" fill="#006A75" fill-opacity="0.15"/>
<path d="M149.271 99.5154C148.935 99.7922 148.915 99.9503 149.004 100.099C150.141 101.216 147.155 101.868 147.234 103.301C147.323 103.835 146.187 103.252 146.246 103.855C145.613 105.377 142.727 105.565 141.818 106.89C139.475 109.904 142.322 110.577 141.452 113.206C138.536 115.924 139.415 125.572 144.902 121.608C146.503 116.972 155.053 100.702 149.271 99.5154Z" fill="#006A75" fill-opacity="0.15"/>
</svg>
