<svg width="203" height="150" viewBox="0 0 203 150" fill="none" xmlns="http://www.w3.org/2000/svg">
<path d="M147.559 81.3627C144.356 79.1922 138.572 80.6491 143.644 82.7007C143.881 82.7899 147.351 82.7899 147.796 82.7899C148.686 82.7601 149.309 82.3736 147.559 81.3627Z" fill="#4F4F4F" fill-opacity="0.5"/>
<path d="M147.559 81.3627C144.356 79.1922 138.572 80.6491 143.644 82.7007C143.881 82.7899 147.351 82.7899 147.796 82.7899C148.686 82.7601 149.309 82.3736 147.559 81.3627Z" fill="#006A75" fill-opacity="0.15"/>
<path d="M85.9263 81.0655C85.956 81.0357 86.0155 81.0357 86.0452 81.006C86.0155 81.0357 85.956 81.0655 85.9263 81.0655Z" fill="#4F4F4F" fill-opacity="0.5"/>
<path d="M85.9263 81.0655C85.956 81.0357 86.0155 81.0357 86.0452 81.006C86.0155 81.0357 85.956 81.0655 85.9263 81.0655Z" fill="#006A75" fill-opacity="0.15"/>
<path d="M175.082 78.2409C174.963 78.2706 174.666 78.2409 174.37 78.1814C173.421 77.9733 173.006 77.4084 172.294 76.6651C172.175 76.5164 172.116 76.338 172.205 76.0704C172.145 75.5055 172.086 75.6244 171.582 75.5947C170.84 75.3866 169.476 74.8216 168.23 74.5838C166.955 74.3459 164.345 74.8514 163.188 74.7324C160.934 74.4946 158.295 74.8514 160.786 75.6839C162.15 75.9515 161.972 76.6353 161.765 77.676C161.587 78.8653 164.493 80.114 161.972 80.1437C160.549 81.6601 154.053 77.7949 155.803 81.0357C156.545 81.1547 157.138 82.6413 157.612 81.7493C159.214 81.006 163.248 81.006 164.76 82.1656C166.214 85.8524 166.332 81.6898 167.993 81.1547C168.794 80.5897 169.061 80.4113 169.239 81.4222C170.781 82.1061 171.345 79.7572 172.857 80.56C174.459 80.0843 175.883 81.6006 176.12 81.0952C177.899 80.5303 176.743 78.003 175.082 78.2409Z" fill="#4F4F4F" fill-opacity="0.5"/>
<path d="M175.082 78.2409C174.963 78.2706 174.666 78.2409 174.37 78.1814C173.421 77.9733 173.006 77.4084 172.294 76.6651C172.175 76.5164 172.116 76.338 172.205 76.0704C172.145 75.5055 172.086 75.6244 171.582 75.5947C170.84 75.3866 169.476 74.8216 168.23 74.5838C166.955 74.3459 164.345 74.8514 163.188 74.7324C160.934 74.4946 158.295 74.8514 160.786 75.6839C162.15 75.9515 161.972 76.6353 161.765 77.676C161.587 78.8653 164.493 80.114 161.972 80.1437C160.549 81.6601 154.053 77.7949 155.803 81.0357C156.545 81.1547 157.138 82.6413 157.612 81.7493C159.214 81.006 163.248 81.006 164.76 82.1656C166.214 85.8524 166.332 81.6898 167.993 81.1547C168.794 80.5897 169.061 80.4113 169.239 81.4222C170.781 82.1061 171.345 79.7572 172.857 80.56C174.459 80.0843 175.883 81.6006 176.12 81.0952C177.899 80.5303 176.743 78.003 175.082 78.2409Z" fill="#006A75" fill-opacity="0.15"/>
<path d="M121.754 66.7641C123.296 65.7235 124.839 65.3072 126.351 64.4153C129.11 63.2854 131.423 65.0396 132.283 65.3072C132.52 65.3667 132.787 65.4559 133.025 65.5154C134.33 65.8127 136.999 66.9128 137.829 67.1804C139.342 67.6858 141.27 67.448 142.071 67.9237C141.952 73.0971 148.121 69.9158 146.43 73.0079C138.6 76.0704 159.125 74.4648 156.93 72.9187C156.07 72.3538 155.299 71.8186 154.409 71.4619C153.638 71.1348 146.964 67.775 146.341 67.329C145.363 66.6155 144.473 65.7235 143.287 65.0694C142.782 64.8018 140.499 64.2963 139.994 63.999C139.194 63.553 137.414 62.3935 136.821 62.1556C136.495 62.0367 134.774 61.442 134.092 61.3826C130.237 61.0852 125.521 61.2636 122.407 64.2666C122.347 64.3261 122.14 64.445 120.063 66.4668C120.123 67.1507 121.695 66.7939 121.754 66.7641Z" fill="#4F4F4F" fill-opacity="0.5"/>
<path d="M121.754 66.7641C123.296 65.7235 124.839 65.3072 126.351 64.4153C129.11 63.2854 131.423 65.0396 132.283 65.3072C132.52 65.3667 132.787 65.4559 133.025 65.5154C134.33 65.8127 136.999 66.9128 137.829 67.1804C139.342 67.6858 141.27 67.448 142.071 67.9237C141.952 73.0971 148.121 69.9158 146.43 73.0079C138.6 76.0704 159.125 74.4648 156.93 72.9187C156.07 72.3538 155.299 71.8186 154.409 71.4619C153.638 71.1348 146.964 67.775 146.341 67.329C145.363 66.6155 144.473 65.7235 143.287 65.0694C142.782 64.8018 140.499 64.2963 139.994 63.999C139.194 63.553 137.414 62.3935 136.821 62.1556C136.495 62.0367 134.774 61.442 134.092 61.3826C130.237 61.0852 125.521 61.2636 122.407 64.2666C122.347 64.3261 122.14 64.445 120.063 66.4668C120.123 67.1507 121.695 66.7939 121.754 66.7641Z" fill="#006A75" fill-opacity="0.15"/>
<path d="M141.241 120.431C138.72 118.558 135.428 115.168 132.699 117.428C130.83 118.38 128.903 119.777 126.797 119.985C126.559 119.896 126.026 119.718 125.432 119.45C124.454 119.004 121.369 115.555 120.509 114.366C119.856 113.474 118.374 109.579 118.581 107.735C118.967 104.138 120.598 98.9643 121.992 97.6264C122.081 96.0208 121.043 95.3072 122.615 94.5639C120.331 92.661 118.225 89.8365 114.992 90.8474C113.658 91.115 99.8365 91.9177 103.218 89.4797C105.501 88.2309 104.997 86.3578 105.62 83.6521C107.073 81.0654 108.942 75.3568 109.12 75.0297C110.336 72.7998 114.458 69.113 112.382 67.7453C94.9427 67.8345 102.921 71.3132 94.6165 80.0842C94.4979 80.5005 94.0233 80.5302 93.5784 80.4113C93.0149 80.2626 91.1167 79.4598 89.7227 79.9058C88.1508 80.4113 86.4306 81.1843 84.918 81.4519C82.6639 82.0168 81.5665 78.0624 79.0158 79.3112C78.8378 79.0733 78.7488 78.33 78.5709 77.8543C77.1472 74.0188 74.4483 69.7076 74.5372 66.1695C74.6262 62.6313 76.1388 59.5391 76.1685 56.447C75.7829 55.1982 78.2446 53.0277 78.6302 51.7492C80.0538 47.0515 75.2491 52.4926 72.728 45.0297C72.1052 41.1645 70.5036 31.3231 64.3345 34.2963C61.8431 39.8265 56.8011 35.4559 57.6315 30.8176C55.8816 29.4797 54.9029 26.7443 53.064 25.8226C51.9666 26.5659 45.3823 24.2765 46.8949 27.6363C35.3278 29.8662 27.7647 20.1734 18.1255 22.7601C18.6297 23.2656 18.3034 24.0386 18.2441 24.7522C19.1932 25.6442 18.3628 25.9415 18.3034 26.8929C19.3119 29.1526 18.5407 30.8474 19.2822 32.334C18.4814 35.8424 25.4216 38.3697 22.0998 41.551C22.0405 41.7294 21.9812 41.8483 21.9515 41.9673C21.8922 42.1159 21.8032 42.3835 21.5956 42.3538C20.8245 42.0862 19.6084 42.2943 18.7483 42.0267C18.8076 42.9782 20.1127 43.1268 20.2609 43.9594C20.5872 44.9405 23.4345 47.6759 24.2649 45.892C23.909 47.3488 25.7182 48.0327 26.4894 49.1031C25.0657 58.7661 28.9511 53.7116 31.8577 62.0367C36.2176 61.9772 32.3916 55.1387 31.5908 56.8929C29.307 56.6848 31.3831 54.3062 30.434 53.1764C29.9892 52.9088 29.9298 49.7869 29.7222 47.7948C29.5739 46.2785 28.7435 46.1001 28.5952 45.5946C28.0317 43.662 26.3114 42.0267 27.1122 39.7671C26.3411 39.3806 26.519 37.2101 25.4513 37.5372C26.0445 35.0099 22.4557 34.0287 23.4938 31.5907C24.2946 29.3905 23.82 23.4737 26.0445 26.4172C27.2012 27.8741 28.091 25.4955 28.6545 27.8147C30.3451 27.993 30.0485 28.7364 29.4256 29.9851C29.7519 32.8989 29.7815 35.4856 30.7306 37.8345C30.9383 38.4291 31.1459 38.9346 31.3535 39.3508C32.5398 41.7889 35.4761 46.4271 37.6709 49.9356C39.2428 52.4331 43.1282 57.9633 44.9077 60.7284C45.5009 61.6501 46.0644 62.6908 46.45 63.7611C46.5093 63.9395 44.7298 72.8593 45.5306 74.3161C45.9755 76.2785 47.8736 77.2002 49.0897 78.2111C49.6532 78.5679 50.1574 79.0436 50.6319 79.5193C52.0852 80.9762 59.4111 84.6333 61.3092 85.7631C65.6691 88.3498 70.4443 90.7879 75.2787 91.7393C77.1176 91.4717 79.4013 90.104 80.7063 89.4499C81.5665 89.004 84.0875 89.8959 85.2145 91.115C87.1721 93.2854 89.2482 97.0912 93.4005 98.9643C95.5063 98.5778 98.4425 100.51 100.4 101.343C101.053 101.61 104.018 102.443 104.849 103.097C105.709 103.751 106.391 104.465 106.688 104.822C108.022 106.665 110.395 108.419 111.374 110.173C112.293 111.482 110.514 110.709 111.789 112.344C110.128 113.831 111.671 115.614 112.887 116.179C113.984 116.685 116.861 117.428 117.306 117.696C117.84 117.993 118.314 118.38 118.611 118.855C118.7 118.974 119.263 119.718 119.797 120.461C120.183 120.996 121.814 121.888 122.585 121.858C123.86 121.829 125.581 122.661 125.907 124.058C126.115 124.296 126.293 124.475 126.441 124.564C127.182 125.01 128.547 126.378 128.725 126.348C129.97 126.229 132.224 125.545 131.157 124.326C130.089 123.107 131.127 121.858 131.364 121.739C132.373 121.115 132.699 119.48 133.826 119.093C134.093 119.004 135.546 119.182 135.932 119.569C136.317 119.955 136.673 120.461 136.94 120.847C137.355 121.472 137.474 123.077 137.504 123.672C137.563 124.594 138.127 125.545 139.105 126.318C139.165 126.229 139.224 126.14 139.283 126.021C139.728 125.129 140.381 124.98 140.47 124.921C142.397 123.702 140.914 122.037 141.241 120.431ZM89.6931 96.2884C89.7227 96.2289 89.7821 96.1397 89.8414 96.0208C89.8117 96.11 89.7524 96.1992 89.6931 96.2884Z" fill="#4F4F4F" fill-opacity="0.5"/>
<path d="M141.241 120.431C138.72 118.558 135.428 115.168 132.699 117.428C130.83 118.38 128.903 119.777 126.797 119.985C126.559 119.896 126.026 119.718 125.432 119.45C124.454 119.004 121.369 115.555 120.509 114.366C119.856 113.474 118.374 109.579 118.581 107.735C118.967 104.138 120.598 98.9643 121.992 97.6264C122.081 96.0208 121.043 95.3072 122.615 94.5639C120.331 92.661 118.225 89.8365 114.992 90.8474C113.658 91.115 99.8365 91.9177 103.218 89.4797C105.501 88.2309 104.997 86.3578 105.62 83.6521C107.073 81.0654 108.942 75.3568 109.12 75.0297C110.336 72.7998 114.458 69.113 112.382 67.7453C94.9427 67.8345 102.921 71.3132 94.6165 80.0842C94.4979 80.5005 94.0233 80.5302 93.5784 80.4113C93.0149 80.2626 91.1167 79.4598 89.7227 79.9058C88.1508 80.4113 86.4306 81.1843 84.918 81.4519C82.6639 82.0168 81.5665 78.0624 79.0158 79.3112C78.8378 79.0733 78.7488 78.33 78.5709 77.8543C77.1472 74.0188 74.4483 69.7076 74.5372 66.1695C74.6262 62.6313 76.1388 59.5391 76.1685 56.447C75.7829 55.1982 78.2446 53.0277 78.6302 51.7492C80.0538 47.0515 75.2491 52.4926 72.728 45.0297C72.1052 41.1645 70.5036 31.3231 64.3345 34.2963C61.8431 39.8265 56.8011 35.4559 57.6315 30.8176C55.8816 29.4797 54.9029 26.7443 53.064 25.8226C51.9666 26.5659 45.3823 24.2765 46.8949 27.6363C35.3278 29.8662 27.7647 20.1734 18.1255 22.7601C18.6297 23.2656 18.3034 24.0386 18.2441 24.7522C19.1932 25.6442 18.3628 25.9415 18.3034 26.8929C19.3119 29.1526 18.5407 30.8474 19.2822 32.334C18.4814 35.8424 25.4216 38.3697 22.0998 41.551C22.0405 41.7294 21.9812 41.8483 21.9515 41.9673C21.8922 42.1159 21.8032 42.3835 21.5956 42.3538C20.8245 42.0862 19.6084 42.2943 18.7483 42.0267C18.8076 42.9782 20.1127 43.1268 20.2609 43.9594C20.5872 44.9405 23.4345 47.6759 24.2649 45.892C23.909 47.3488 25.7182 48.0327 26.4894 49.1031C25.0657 58.7661 28.9511 53.7116 31.8577 62.0367C36.2176 61.9772 32.3916 55.1387 31.5908 56.8929C29.307 56.6848 31.3831 54.3062 30.434 53.1764C29.9892 52.9088 29.9298 49.7869 29.7222 47.7948C29.5739 46.2785 28.7435 46.1001 28.5952 45.5946C28.0317 43.662 26.3114 42.0267 27.1122 39.7671C26.3411 39.3806 26.519 37.2101 25.4513 37.5372C26.0445 35.0099 22.4557 34.0287 23.4938 31.5907C24.2946 29.3905 23.82 23.4737 26.0445 26.4172C27.2012 27.8741 28.091 25.4955 28.6545 27.8147C30.3451 27.993 30.0485 28.7364 29.4256 29.9851C29.7519 32.8989 29.7815 35.4856 30.7306 37.8345C30.9383 38.4291 31.1459 38.9346 31.3535 39.3508C32.5398 41.7889 35.4761 46.4271 37.6709 49.9356C39.2428 52.4331 43.1282 57.9633 44.9077 60.7284C45.5009 61.6501 46.0644 62.6908 46.45 63.7611C46.5093 63.9395 44.7298 72.8593 45.5306 74.3161C45.9755 76.2785 47.8736 77.2002 49.0897 78.2111C49.6532 78.5679 50.1574 79.0436 50.6319 79.5193C52.0852 80.9762 59.4111 84.6333 61.3092 85.7631C65.6691 88.3498 70.4443 90.7879 75.2787 91.7393C77.1176 91.4717 79.4013 90.104 80.7063 89.4499C81.5665 89.004 84.0875 89.8959 85.2145 91.115C87.1721 93.2854 89.2482 97.0912 93.4005 98.9643C95.5063 98.5778 98.4425 100.51 100.4 101.343C101.053 101.61 104.018 102.443 104.849 103.097C105.709 103.751 106.391 104.465 106.688 104.822C108.022 106.665 110.395 108.419 111.374 110.173C112.293 111.482 110.514 110.709 111.789 112.344C110.128 113.831 111.671 115.614 112.887 116.179C113.984 116.685 116.861 117.428 117.306 117.696C117.84 117.993 118.314 118.38 118.611 118.855C118.7 118.974 119.263 119.718 119.797 120.461C120.183 120.996 121.814 121.888 122.585 121.858C123.86 121.829 125.581 122.661 125.907 124.058C126.115 124.296 126.293 124.475 126.441 124.564C127.182 125.01 128.547 126.378 128.725 126.348C129.97 126.229 132.224 125.545 131.157 124.326C130.089 123.107 131.127 121.858 131.364 121.739C132.373 121.115 132.699 119.48 133.826 119.093C134.093 119.004 135.546 119.182 135.932 119.569C136.317 119.955 136.673 120.461 136.94 120.847C137.355 121.472 137.474 123.077 137.504 123.672C137.563 124.594 138.127 125.545 139.105 126.318C139.165 126.229 139.224 126.14 139.283 126.021C139.728 125.129 140.381 124.98 140.47 124.921C142.397 123.702 140.914 122.037 141.241 120.431ZM89.6931 96.2884C89.7227 96.2289 89.7821 96.1397 89.8414 96.0208C89.8117 96.11 89.7524 96.1992 89.6931 96.2884Z" fill="#006A75" fill-opacity="0.15"/>
<path d="M185.254 80.5302C183 79.7571 179.412 79.995 181.784 82.4628C183.475 83.444 189.496 81.214 185.254 80.5302Z" fill="#4F4F4F" fill-opacity="0.5"/>
<path d="M185.254 80.5302C183 79.7571 179.412 79.995 181.784 82.4628C183.475 83.444 189.496 81.214 185.254 80.5302Z" fill="#006A75" fill-opacity="0.15"/>
</svg>
